<?xml version="1.0" standalone="no"?>
<!DOCTYPE svg PUBLIC "-//W3C//DTD SVG 20010904//EN"
        "http://www.w3.org/TR/2001/REC-SVG-20010904/DTD/svg10.dtd">
<svg version="1.0" xmlns="http://www.w3.org/2000/svg"
     width="512px" height="512px" viewBox="0 0 2109.000000 2110.000000"
     preserveAspectRatio="xMidYMid meet">
    <metadata>
        Created by potrace 1.16, written by Peter Selinger 2001-2019
    </metadata>
    <g transform="translate(0.000000,2110.000000) scale(0.100000,-0.100000)"
       fill="#000000" stroke="none">
        <path d="M5868 14904 c-198 -36 -467 -152 -640 -277 -244 -175 -413 -383 -492
-605 l-31 -87 -3 -2325 c-2 -2078 -1 -2333 13 -2396 84 -383 553 -703 1161
-792 l51 -7 -195 -738 c-107 -406 -192 -740 -189 -743 3 -3 569 327 1258 733
l1254 738 2795 5 2795 5 93 22 c496 115 833 400 907 768 14 72 15 306 13 2410
l-3 2330 -23 75 c-12 41 -47 125 -77 185 -165 332 -471 576 -865 688 l-75 22
-3835 1 c-3253 2 -3847 0 -3912 -12z m1538 -2448 c211 -67 384 -253 439 -471
19 -76 19 -222 0 -304 -55 -232 -254 -431 -486 -486 -82 -19 -228 -19 -304 0
-157 40 -302 143 -394 281 -75 112 -104 210 -105 354 0 165 35 270 138 407 82
108 237 206 377 238 93 21 233 13 335 -19z m2402 18 c42 -8 115 -34 162 -56
68 -33 100 -57 170 -127 132 -133 193 -275 193 -456 0 -305 -210 -571 -508
-641 -93 -21 -254 -15 -345 15 -155 49 -303 174 -377 317 -58 112 -77 188 -76
314 0 184 66 333 204 465 159 152 365 212 577 169z m2477 1 c136 -28 274 -114
373 -230 98 -114 161 -306 148 -455 -39 -466 -525 -747 -941 -545 -227 111
-368 337 -367 590 0 188 73 351 217 483 152 139 370 199 570 157z"/>
        <path d="M15320 10672 c0 -1161 -4 -1825 -10 -1891 -31 -295 -154 -546 -348
-707 -81 -68 -237 -145 -352 -176 l-85 -23 -3244 -2 -3244 -3 6 -138 c10 -212
46 -329 153 -489 179 -269 512 -477 838 -522 53 -8 837 -11 2519 -11 l2442 0
919 -541 c505 -297 922 -538 926 -537 4 2 -52 244 -125 538 l-132 535 51 3
c164 8 309 43 405 99 243 141 398 415 430 764 15 153 15 4010 1 4161 -35 372
-220 608 -546 699 -70 20 -109 23 -341 27 l-263 4 0 -1790z"/>
    </g>
</svg>
