<?xml version="1.0" standalone="no"?>
<!DOCTYPE svg PUBLIC "-//W3C//DTD SVG 20010904//EN"
        "http://www.w3.org/TR/2001/REC-SVG-20010904/DTD/svg10.dtd">
<svg version="1.0" xmlns="http://www.w3.org/2000/svg"
     width="512px" height="512px" viewBox="0 0 2109.000000 2109.000000"
     preserveAspectRatio="xMidYMid meet">
    <metadata>
        Created by potrace 1.16, written by Peter Selinger 2001-2019
    </metadata>
    <g transform="translate(0.000000,2109.000000) scale(0.100000,-0.100000)"
       fill="#000000" stroke="none">
        <path d="M12922 16147 c-18 -18 -32 -37 -32 -43 0 -5 46 -55 103 -112 l103
-102 37 38 37 38 -108 107 -108 107 -32 -33z"/>
        <path d="M13402 16077 c-56 -56 -102 -107 -102 -113 0 -5 15 -24 33 -42 l33
-32 107 108 107 108 -38 37 -38 37 -102 -103z"/>
        <path d="M19400 15830 l0 -160 60 0 60 0 0 160 0 160 -60 0 -60 0 0 -160z"/>
        <path d="M19037 15812 c-20 -21 -37 -42 -37 -48 0 -5 49 -59 110 -119 l110
-109 45 44 45 44 -112 113 c-62 62 -115 113 -118 113 -3 0 -23 -17 -43 -38z"/>
        <path d="M19722 15737 l-112 -113 45 -44 45 -44 110 109 c61 60 110 114 110
120 0 11 -71 85 -81 85 -2 0 -55 -51 -117 -113z"/>
        <path d="M1515 15730 l-50 -50 158 -158 157 -157 52 53 53 52 -155 155 c-85
85 -157 155 -160 155 -3 0 -28 -23 -55 -50z"/>
        <path d="M2227 15632 c-81 -81 -147 -152 -147 -157 0 -6 23 -33 50 -60 l50
-50 155 155 155 155 -52 52 c-29 29 -55 53 -58 53 -3 0 -72 -66 -153 -148z"/>
        <path d="M12987 15662 c-53 -53 -97 -102 -97 -108 0 -5 15 -24 33 -42 l33 -32
107 108 107 108 -33 32 c-18 18 -37 32 -43 32 -5 0 -53 -44 -107 -98z"/>
        <path d="M13327 15732 c-15 -15 -27 -32 -27 -38 0 -5 47 -56 105 -114 l105
-105 37 38 38 37 -105 105 c-58 58 -110 105 -115 105 -6 0 -23 -13 -38 -28z"/>
        <path d="M7665 15456 c-27 -12 -69 -44 -93 -70 -84 -91 -76 26 -82 -1331 -4
-1019 -7 -1199 -18 -1143 -21 113 -31 214 -41 438 -16 329 -55 444 -201 590
-140 140 -280 192 -520 193 -220 1 -382 -29 -900 -168 -830 -223 -1183 -282
-1737 -292 -732 -13 -1266 81 -2208 387 -436 142 -523 163 -680 164 -116 1
-135 -1 -182 -23 -127 -57 -194 -197 -172 -361 34 -254 370 -616 912 -984 70
-47 126 -86 124 -86 -2 0 -64 18 -138 40 -243 73 -384 94 -474 69 -56 -15
-127 -91 -145 -152 -43 -154 74 -366 370 -671 273 -281 594 -529 928 -719 122
-69 130 -75 108 -85 -52 -23 -97 -112 -95 -186 2 -116 88 -216 324 -376 485
-327 1190 -595 1816 -689 343 -52 801 -69 1124 -42 553 47 1136 192 1620 403
88 38 166 72 172 75 10 4 13 -329 15 -1598 l3 -1604 23 -46 c31 -63 85 -117
146 -145 l51 -24 2760 0 2760 0 50 24 c67 31 140 113 160 179 13 44 15 251 15
1633 l0 1583 88 -41 c367 -170 831 -311 1258 -382 512 -86 1041 -93 1539 -20
574 83 1216 312 1712 608 221 133 389 271 435 359 34 63 32 158 -4 218 -15 26
-42 56 -59 67 l-32 20 64 32 c527 266 1222 899 1350 1229 33 85 32 183 -4 243
-84 144 -198 153 -570 46 -77 -22 -147 -42 -156 -45 -9 -3 43 35 116 85 526
361 845 694 902 942 38 166 -21 322 -149 394 -54 30 -57 31 -190 31 -164 0
-217 -13 -643 -151 -906 -295 -1393 -390 -2050 -401 -574 -10 -962 41 -1637
214 -162 42 -405 104 -540 139 -337 86 -468 107 -655 107 -169 0 -257 -18
-371 -74 -79 -39 -194 -143 -245 -223 -80 -122 -102 -229 -119 -561 -6 -121
-17 -254 -24 -295 -12 -66 -14 2 -15 566 -1 714 0 705 -68 784 -19 22 -286
275 -594 563 -420 391 -575 530 -620 555 l-61 32 -2201 0 -2202 0 -50 -24z
m4265 -816 c0 -488 -1 -478 55 -530 l27 -25 529 -3 529 -3 0 -3334 0 -3335
-2595 0 -2595 0 0 3840 0 3840 2025 0 2025 0 0 -450z m553 4 c127 -119 241
-225 252 -235 19 -19 14 -19 -238 -19 l-257 0 0 235 c0 129 2 235 5 235 3 0
110 -97 238 -216z m-11158 -814 c45 -10 229 -67 410 -125 636 -204 989 -293
1410 -354 306 -45 456 -55 820 -55 657 0 1023 59 2015 324 423 112 529 133
700 134 131 1 150 -1 195 -22 54 -25 119 -82 139 -122 26 -51 36 -122 46 -340
15 -325 48 -517 127 -745 48 -136 156 -358 236 -487 l67 -106 -2 -534 -3 -533
-115 -57 c-794 -397 -1774 -565 -2634 -452 -382 50 -779 159 -1143 312 -167
71 -272 125 -228 117 17 -3 102 -12 190 -20 643 -61 1679 16 2109 156 117 38
170 70 204 121 37 57 38 153 3 215 -54 94 -152 105 -501 54 -452 -66 -726 -86
-1065 -78 -774 20 -1380 200 -1950 580 -238 159 -505 387 -665 567 l-60 68
173 -55 c1078 -339 1425 -409 2082 -420 409 -7 658 11 1095 78 531 82 602 97
686 153 l55 37 -6 97 c-7 93 -8 98 -39 124 -50 44 -107 68 -162 68 -27 0 -146
-20 -265 -44 -316 -65 -381 -71 -804 -71 -291 0 -402 4 -520 18 -752 90 -1307
296 -1950 723 -330 219 -647 503 -743 664 -21 34 -21 38 -5 34 10 -2 54 -13
98 -24z m18388 3 c-69 -111 -262 -307 -447 -455 -358 -287 -828 -557 -1226
-706 -446 -167 -904 -249 -1443 -259 -400 -8 -566 5 -880 68 -136 27 -270 49
-298 49 -54 0 -104 -21 -157 -67 -31 -27 -32 -31 -38 -128 l-7 -100 63 -37
c69 -41 165 -67 363 -98 663 -106 784 -119 1192 -127 320 -6 527 4 792 37 356
46 613 109 1321 326 189 58 345 104 348 102 7 -7 -233 -247 -331 -333 -713
-617 -1529 -896 -2550 -872 -281 7 -478 24 -814 73 -299 43 -402 46 -469 12
-124 -61 -124 -252 1 -335 178 -119 852 -220 1597 -239 251 -7 521 4 747 31
65 7 119 12 121 10 1 -1 -55 -28 -125 -60 -650 -293 -1255 -418 -1943 -402
-365 9 -646 46 -1000 133 -322 79 -614 184 -907 325 l-163 78 0 545 0 546 71
118 c217 360 318 687 340 1107 16 322 23 377 55 436 62 113 168 156 361 146
153 -8 311 -41 779 -166 209 -55 460 -119 559 -141 1075 -243 2018 -208 3127
114 84 25 266 81 403 126 270 88 454 143 525 158 25 6 46 10 48 11 1 1 -5 -11
-15 -26z"/>
        <path d="M8940 14550 l0 -80 615 0 615 0 0 80 0 80 -615 0 -615 0 0 -80z"/>
        <path d="M8190 14020 l0 -80 1395 0 1395 0 0 80 0 80 -1395 0 -1395 0 0 -80z"/>
        <path d="M8430 13490 l0 -80 1160 0 1160 0 0 80 0 80 -1160 0 -1160 0 0 -80z"/>
        <path d="M8190 12830 l0 -80 820 0 820 0 0 80 0 80 -820 0 -820 0 0 -80z"/>
        <path d="M8190 12270 l0 -80 1790 0 1790 0 0 80 0 80 -1790 0 -1790 0 0 -80z"/>
        <path d="M8190 11710 l0 -80 1790 0 1790 0 0 80 0 80 -1790 0 -1790 0 0 -80z"/>
        <path d="M8190 11140 l0 -80 1790 0 1790 0 0 80 0 80 -1790 0 -1790 0 0 -80z"/>
        <path d="M8190 10500 l0 -80 1790 0 1790 0 0 80 0 80 -1790 0 -1790 0 0 -80z"/>
        <path d="M10375 10041 c-243 -160 -531 -453 -710 -721 -158 -237 -246 -466
-245 -642 3 -405 296 -723 838 -906 190 -64 244 -64 434 0 519 176 802 464
834 851 19 244 -111 548 -382 887 -175 218 -537 537 -664 585 -9 3 -52 -19
-105 -54z m187 -123 c211 -146 435 -378 602 -625 236 -350 288 -628 166 -875
-84 -169 -222 -298 -437 -409 -68 -36 -81 -39 -154 -39 -203 0 -339 75 -339
188 0 52 25 81 164 196 56 46 114 100 130 120 69 91 101 222 85 346 -18 132
-128 294 -231 340 -74 32 -108 83 -108 161 0 22 5 50 11 61 10 19 9 20 -16 14
l-28 -7 7 47 c7 53 50 156 75 178 9 8 27 16 41 18 23 3 25 7 28 67 3 71 -24
179 -57 221 -27 35 -34 21 -15 -31 20 -57 21 -154 2 -199 -8 -19 -43 -72 -77
-117 -73 -96 -102 -170 -109 -275 -4 -74 -12 -92 -28 -67 -13 22 -22 -8 -26
-86 -3 -75 -2 -80 17 -80 27 0 127 -64 119 -77 -9 -14 -84 -48 -107 -48 -10 0
-22 10 -26 23 -9 22 -9 22 -16 -6 -4 -15 -4 -40 0 -55 3 -15 10 -55 13 -89 7
-58 11 -65 69 -126 67 -70 79 -96 69 -160 -6 -40 -5 -41 10 -22 70 87 70 206
0 193 -32 -6 -56 21 -56 63 0 49 89 97 155 85 36 -7 91 -61 100 -99 27 -115
-9 -176 -171 -284 -181 -120 -236 -198 -235 -332 0 -74 18 -117 73 -177 51
-55 48 -55 -107 10 -355 149 -554 369 -595 657 -38 266 151 645 507 1019 131
138 369 330 409 330 5 0 45 -24 86 -52z"/>
        <path d="M9180 8081 c-46 -15 -95 -43 -140 -81 -25 -20 -61 -45 -80 -55 -40
-21 -125 -24 -159 -6 -47 26 -34 -3 28 -60 125 -115 259 -153 357 -102 41 22
100 81 90 91 -3 2 -23 -3 -46 -12 -44 -17 -100 -21 -100 -7 0 5 21 32 47 61
97 108 176 106 288 -10 65 -68 163 -137 225 -161 32 -12 73 -19 113 -18 l62 1
-45 9 c-105 21 -209 99 -312 236 -67 88 -119 116 -222 120 -45 1 -92 -1 -106
-6z"/>
        <path d="M11578 8076 c-53 -19 -82 -40 -117 -83 -17 -21 -52 -65 -79 -98 -64
-79 -145 -134 -230 -156 l-67 -18 62 0 c39 -1 82 6 113 18 62 24 160 93 225
161 112 116 191 118 288 10 26 -29 47 -56 47 -61 0 -14 -56 -10 -100 7 -23 9
-43 14 -46 12 -10 -10 49 -69 90 -91 97 -51 230 -14 354 98 61 56 79 84 45 70
-85 -35 -157 -22 -234 41 -89 74 -142 97 -234 101 -52 2 -93 -2 -117 -11z"/>
        <path d="M18850 15380 l0 -60 160 0 160 0 0 60 0 60 -160 0 -160 0 0 -60z"/>
        <path d="M19750 15380 l0 -60 160 0 160 0 0 60 0 60 -160 0 -160 0 0 -60z"/>
        <path d="M19107 15112 c-59 -59 -107 -112 -107 -118 0 -5 18 -28 40 -49 l40
-39 115 114 115 114 -42 43 c-23 24 -45 43 -48 43 -3 0 -54 -48 -113 -108z"/>
        <path d="M19652 15177 l-42 -43 115 -114 115 -114 40 39 c22 21 40 44 40 50 0
10 -210 225 -221 225 -2 0 -24 -19 -47 -43z"/>
        <path d="M1620 15025 l-155 -155 50 -50 c27 -27 54 -50 60 -50 13 0 305 292
305 305 0 10 -91 105 -100 105 -3 0 -75 -70 -160 -155z"/>
        <path d="M2127 15132 c-26 -26 -47 -52 -47 -57 0 -13 292 -305 305 -305 6 0
32 21 58 48 l47 47 -158 158 -157 157 -48 -48z"/>
        <path d="M19400 14930 l0 -160 60 0 60 0 0 160 0 160 -60 0 -60 0 0 -160z"/>
        <path d="M17992 10107 c-18 -18 -32 -37 -32 -43 0 -13 223 -234 236 -234 13 0
74 62 74 76 0 13 -223 234 -236 234 -5 0 -24 -15 -42 -33z"/>
        <path d="M18530 10025 l-115 -115 43 -42 42 -43 115 115 c63 63 115 119 115
125 0 14 -62 75 -76 75 -5 0 -61 -52 -124 -115z"/>
        <path d="M18072 9567 c-61 -62 -112 -117 -112 -123 0 -13 62 -74 76 -74 13 0
234 223 234 236 0 13 -62 74 -76 74 -5 0 -60 -51 -122 -113z"/>
        <path d="M18455 9640 l-39 -40 114 -115 c63 -63 119 -115 125 -115 14 0 75 62
75 76 0 10 -221 234 -231 234 -3 0 -23 -18 -44 -40z"/>
        <path d="M14810 9045 l0 -145 50 0 50 0 0 145 0 145 -50 0 -50 0 0 -145z"/>
        <path d="M5352 8947 l-42 -43 128 -127 128 -127 44 45 44 45 -124 125 c-69 69
-127 125 -130 125 -3 0 -25 -19 -48 -43z"/>
        <path d="M5930 8865 l-124 -125 44 -45 44 -45 128 127 128 127 -42 43 c-23 24
-45 43 -48 43 -3 0 -61 -56 -130 -125z"/>
        <path d="M14430 8760 l0 -50 145 0 145 0 0 50 0 50 -145 0 -145 0 0 -50z"/>
        <path d="M15000 8760 l0 -50 145 0 145 0 0 50 0 50 -145 0 -145 0 0 -50z"/>
        <path d="M14810 8475 l0 -145 50 0 50 0 0 145 0 145 -50 0 -50 0 0 -145z"/>
        <path d="M5437 8372 l-127 -128 45 -44 45 -45 128 128 127 127 -45 45 -45 45
-128 -128z"/>
        <path d="M5850 8455 l-44 -45 124 -125 c69 -69 129 -125 135 -125 6 0 29 18
50 40 l39 40 -129 130 -130 130 -45 -45z"/>
        <path d="M7041 7798 c-83 -43 -81 -26 -81 -579 0 -405 3 -494 15 -537 20 -68
96 -151 167 -183 l53 -24 505 0 505 0 33 23 c48 35 65 75 60 143 -3 45 -10 65
-29 85 -51 55 -41 54 -538 54 l-460 0 -3 469 c-3 456 -4 470 -24 497 -53 72
-128 91 -203 52z"/>
    </g>
</svg>
