<?xml version="1.0" standalone="no"?>
<!DOCTYPE svg PUBLIC "-//W3C//DTD SVG 20010904//EN"
        "http://www.w3.org/TR/2001/REC-SVG-20010904/DTD/svg10.dtd">
<svg version="1.0" xmlns="http://www.w3.org/2000/svg"
     width="512px" height="512px" viewBox="0 0 2109.000000 2109.000000"
     preserveAspectRatio="xMidYMid meet">
    <metadata>
        Created by potrace 1.16, written by Peter Selinger 2001-2019
    </metadata>
    <g transform="translate(0.000000,2109.000000) scale(0.100000,-0.100000)"
       fill="#000000" stroke="none">
        <path d="M10465 17988 c-181 -148 -343 -280 -358 -292 l-28 -22 36 -409 36
-408 41 -99 c23 -54 39 -100 37 -101 -2 -2 -25 -16 -51 -31 -27 -15 -48 -32
-48 -39 0 -7 27 -93 60 -192 l60 -179 -36 -104 c-58 -167 -48 -305 32 -449
l34 -62 -21 -1416 c-12 -779 -20 -1418 -17 -1420 2 -2 54 -7 116 -11 l112 -7
0 69 c0 38 9 695 21 1460 l21 1391 -39 69 c-80 141 -82 188 -18 355 l44 117
-44 133 c-25 74 -43 139 -41 145 3 7 27 25 55 41 28 15 51 34 51 41 0 7 -32
88 -71 180 l-70 167 -29 325 c-28 307 -28 326 -12 341 76 71 456 370 465 366
18 -8 442 -399 445 -411 1 -6 -20 -157 -47 -336 l-50 -325 -61 -159 -61 -159
39 -41 40 -41 -54 -135 c-29 -74 -54 -144 -54 -155 0 -11 16 -69 35 -129 49
-154 48 -189 -14 -313 l-50 -98 -67 -1442 c-37 -794 -66 -1445 -63 -1447 5 -5
218 10 224 15 2 2 33 636 69 1407 l65 1404 30 53 c80 142 93 285 41 447 l-30
93 72 183 71 183 -40 40 -40 41 37 101 c30 81 44 148 71 327 l34 225 6 -100
c4 -55 7 -177 8 -271 1 -166 2 -173 35 -271 l34 -101 -58 -25 -58 -26 49 -195
49 -196 -40 -88 c-74 -165 -76 -300 -8 -452 l32 -72 -121 -1342 c-67 -737
-120 -1342 -118 -1344 2 -2 55 4 119 14 98 15 116 20 116 35 0 10 54 617 120
1349 l120 1331 -42 92 c-61 134 -60 175 13 331 l56 120 -33 130 c-19 72 -34
138 -34 147 0 9 24 27 60 44 33 16 60 32 60 35 0 4 -26 85 -59 181 l-58 174
-7 330 -7 330 250 173 c137 96 253 174 256 174 4 0 101 -101 216 -224 131
-140 207 -229 204 -238 -3 -8 -36 -152 -74 -320 -60 -263 -76 -320 -116 -405
-26 -55 -60 -128 -76 -163 l-28 -63 34 -38 c19 -21 35 -41 35 -44 0 -4 -29
-68 -65 -144 l-66 -137 32 -133 c29 -121 31 -138 20 -186 -7 -31 -32 -85 -63
-132 l-51 -80 -153 -1250 c-138 -1128 -160 -1315 -151 -1315 8 0 228 68 231
71 2 2 68 543 148 1201 l146 1198 46 77 c85 143 101 242 66 416 l-22 112 81
169 c44 93 81 174 81 179 0 6 -16 27 -35 47 l-36 36 44 95 c38 81 57 151 137
496 l92 402 -204 218 c-113 120 -255 272 -317 338 -61 66 -116 121 -121 123
-5 2 -165 -106 -357 -241 -191 -134 -353 -246 -359 -250 -6 -3 -10 3 -10 15 1
16 -89 105 -339 335 -187 172 -344 313 -350 312 -5 0 -158 -122 -340 -271z"/>
        <path d="M8928 17583 l-327 -328 74 -395 75 -395 53 -102 52 -102 -23 -17
c-13 -9 -35 -26 -50 -39 l-26 -23 82 -183 82 -184 -26 -95 c-44 -164 -22 -302
71 -442 l45 -67 97 -1134 97 -1134 113 -29 c61 -15 115 -26 118 -23 3 4 -41
546 -98 1207 l-103 1200 -57 86 c-84 125 -90 160 -49 314 18 66 32 127 32 137
0 9 -25 72 -55 140 -30 67 -55 126 -55 131 0 5 25 26 55 47 l55 38 -17 32 c-9
18 -50 93 -91 167 l-75 135 -63 325 -62 325 217 218 217 218 247 -186 c234
-176 247 -187 247 -218 0 -18 -7 -167 -15 -332 l-16 -300 -44 -165 c-25 -92
-45 -169 -45 -172 0 -3 18 -18 40 -33 22 -15 40 -35 40 -44 0 -9 -18 -79 -40
-156 l-39 -140 51 -115 c67 -151 70 -203 17 -335 l-37 -90 68 -1252 c38 -689
71 -1256 74 -1261 6 -10 214 -37 222 -29 3 3 -25 565 -62 1248 l-67 1243 22
61 c70 187 69 298 -7 469 l-34 80 53 189 c59 212 60 191 -12 238 l-24 17 28
113 c25 103 29 151 47 513 11 220 19 401 17 402 -31 28 -736 548 -747 551 -9
2 -140 -122 -342 -324z"/>
        <path d="M7525 16786 c-165 -190 -301 -351 -303 -359 -2 -8 43 -189 98 -402
94 -358 105 -392 144 -454 77 -120 76 -109 22 -156 l-48 -41 96 -179 95 -180
-14 -65 c-19 -88 -19 -223 1 -291 19 -65 54 -128 104 -189 l38 -45 65 -424
c61 -393 67 -426 89 -443 41 -32 229 -151 232 -147 2 2 -35 253 -81 558 l-86
555 -62 78 c-93 117 -101 165 -63 349 l21 105 -66 126 c-37 69 -67 129 -67
134 0 5 23 27 50 49 28 22 48 45 46 52 -3 7 -49 81 -102 165 l-97 152 -78 297
c-42 164 -80 306 -83 316 -4 14 44 75 195 248 111 127 206 229 213 227 6 -2
122 -75 257 -163 l247 -160 6 -42 c3 -23 6 -179 7 -347 l1 -305 -31 -149 c-17
-82 -31 -155 -31 -162 0 -7 21 -25 46 -40 34 -20 44 -32 41 -45 -3 -11 -17
-81 -33 -157 l-27 -137 62 -124 c74 -150 78 -188 32 -323 l-29 -86 84 -699
c47 -384 87 -703 89 -709 3 -12 233 -110 240 -103 2 3 -37 335 -86 739 l-90
735 27 88 c49 162 34 296 -51 451 l-36 65 36 173 c20 95 39 183 41 194 4 17
-4 27 -40 50 -25 16 -46 34 -46 39 0 6 9 54 19 108 18 92 19 126 11 504 -5
223 -12 409 -17 413 -19 18 -758 493 -772 497 -11 2 -117 -112 -316 -341z"/>
        <path d="M13115 16869 c-220 -133 -401 -242 -403 -244 -2 -1 -13 -186 -26
-411 l-22 -409 27 -103 27 -103 -21 -8 c-90 -35 -99 -41 -94 -63 3 -13 20
-102 37 -198 l32 -175 -40 -71 c-62 -109 -77 -164 -77 -279 0 -84 4 -112 28
-180 l29 -81 -116 -729 c-64 -400 -114 -731 -111 -733 6 -6 75 20 171 64 60
27 73 37 78 60 3 16 53 330 111 698 l106 669 -33 86 c-25 66 -33 101 -33 151
0 61 4 72 63 180 34 63 62 123 62 135 0 17 -31 197 -45 261 -4 19 4 25 56 44
33 13 63 29 65 35 3 7 -16 91 -42 186 l-47 174 18 330 c9 182 18 331 19 332 8
9 512 306 521 307 15 1 397 -464 392 -478 -2 -6 -45 -149 -96 -317 -90 -301
-93 -310 -176 -459 -47 -84 -85 -155 -85 -157 0 -3 16 -23 35 -46 l35 -40 -19
-31 c-10 -17 -46 -78 -79 -136 l-60 -105 19 -110 c33 -193 27 -228 -65 -350
l-53 -70 -101 -529 c-56 -291 -101 -531 -99 -532 4 -5 254 163 262 176 4 6 40
183 80 394 l74 383 55 81 c91 134 113 247 84 434 l-11 77 97 171 97 172 -36
44 -36 43 50 88 c42 75 68 149 170 485 l121 398 -292 357 c-160 197 -294 361
-297 365 -4 5 -187 -101 -406 -233z"/>
        <path d="M7711 9788 c1 -2092 4 -4062 9 -4378 7 -533 9 -582 29 -672 100 -455
365 -841 756 -1103 233 -156 466 -250 760 -307 108 -21 135 -22 1275 -25 794
-3 1200 -1 1275 7 475 47 906 252 1218 579 244 257 392 544 464 901 16 79 17
369 20 4443 3 3507 1 4357 -9 4351 -7 -4 -83 -60 -168 -124 -264 -198 -407
-288 -649 -410 -500 -250 -1050 -397 -1686 -450 -167 -15 -612 -15 -780 0
-754 63 -1418 269 -1977 613 -76 47 -225 151 -333 231 -107 80 -197 146 -200
146 -3 0 -5 -1711 -4 -3802z m670 2991 c497 -249 1103 -416 1739 -479 177 -18
648 -24 840 -11 560 38 1078 152 1562 343 149 59 441 200 563 272 44 27 88 52
97 57 17 9 18 -7 18 -280 l0 -290 -87 -59 c-556 -372 -1249 -605 -2038 -684
-201 -20 -760 -17 -965 5 -765 84 -1432 310 -1977 671 l-93 61 0 291 0 292
122 -70 c67 -38 166 -92 219 -119z m4814 -6936 c-7 -38 -78 -106 -241 -229
-498 -375 -1143 -614 -1879 -696 -187 -20 -781 -17 -965 5 -804 100 -1491 384
-1997 824 l-73 64 0 3095 c0 1702 2 3094 4 3094 2 0 40 -21 83 -46 127 -76
397 -207 558 -272 567 -227 1156 -344 1810 -359 718 -17 1429 107 2053 358
151 61 431 197 557 271 l90 54 3 -3066 c1 -1686 0 -3079 -3 -3097z m52 -698
c-4 -200 -9 -269 -25 -343 -68 -308 -190 -530 -417 -758 -238 -239 -500 -380
-845 -456 l-105 -23 -1235 0 -1235 0 -109 23 c-443 96 -806 335 -1042 687 -85
129 -140 243 -183 381 -51 167 -61 250 -61 525 0 137 2 249 5 249 3 0 33 -22
68 -49 489 -382 1194 -658 1920 -751 337 -43 775 -51 1097 -20 285 27 609 90
890 172 426 124 901 363 1225 617 47 36 50 37 54 17 2 -11 1 -133 -2 -271z"/>
        <path d="M10546 10933 c-7 -171 -7 -178 13 -194 20 -17 20 -17 -20 -43 -39
-26 -40 -28 -25 -51 15 -23 14 -24 -30 -46 -62 -30 -86 -69 -81 -135 l3 -52
-43 -6 c-90 -12 -123 -50 -123 -143 0 -27 -6 -35 -42 -55 -62 -34 -91 -81 -85
-140 5 -62 29 -96 85 -120 43 -19 67 -21 371 -22 l326 -1 43 25 c60 34 96 97
89 151 -6 47 -35 82 -89 110 -36 19 -38 22 -38 70 0 44 -4 55 -33 84 -24 24
-46 35 -78 40 l-44 6 3 58 c3 50 0 62 -23 89 -14 17 -49 39 -77 50 l-52 19 37
14 c42 15 44 22 18 65 -16 26 -21 60 -27 195 -8 186 -13 209 -47 209 l-24 0
-7 -177z m223 -594 c19 -7 38 -24 48 -42 15 -29 14 -32 -7 -49 -18 -14 -40
-18 -107 -18 l-85 0 6 33 c7 38 57 87 90 87 13 0 37 -5 55 -11z m-240 -40 c7
-23 15 -47 18 -55 4 -11 -12 -14 -88 -14 -81 0 -96 3 -116 22 -30 28 -29 42 3
67 21 17 41 21 99 21 l72 0 12 -41z m-76 -145 c98 -6 105 -8 97 -25 -15 -28
-12 -64 8 -81 20 -18 77 -48 90 -48 5 0 13 33 17 74 l6 74 100 7 c85 6 104 4
136 -12 50 -24 65 -72 36 -111 -11 -14 -31 -30 -44 -33 -13 -4 -161 -7 -329
-8 -272 -1 -309 1 -340 17 -43 21 -58 58 -39 98 26 54 58 60 262 48z"/>
        <path d="M9741 10201 c-23 -23 -37 -111 -22 -139 6 -11 25 -22 42 -26 44 -8
159 -8 159 2 0 4 -16 17 -35 30 l-36 23 26 34 26 34 -42 30 c-48 35 -90 40
-118 12z"/>
        <path d="M11203 10210 c-34 -14 -46 -44 -34 -87 7 -25 7 -41 0 -49 -12 -15 5
-54 24 -54 22 0 208 38 214 44 3 3 -4 20 -16 39 -22 36 -19 47 10 47 31 0 31
19 0 35 -49 25 -98 20 -118 -12 -9 -16 -18 -30 -19 -32 -2 -1 -7 0 -13 4 -8 4
-6 15 4 35 8 16 15 31 15 35 0 8 -42 5 -67 -5z"/>
        <path d="M9610 9905 c-108 -29 -219 -94 -301 -175 -133 -132 -190 -280 -192
-495 -2 -142 10 -199 65 -315 57 -118 170 -230 323 -319 61 -36 112 -66 114
-68 2 -1 -27 -35 -65 -76 -207 -219 -386 -437 -421 -514 -70 -153 -14 -342
152 -509 127 -128 271 -190 470 -201 160 -8 286 30 400 124 33 26 101 105 167
194 l111 150 31 -37 c17 -20 72 -87 121 -148 141 -173 291 -287 453 -343 98
-34 251 -38 347 -9 268 81 449 276 520 560 100 396 -19 673 -357 835 -54 25
-97 48 -97 51 0 3 65 55 145 115 170 128 262 221 305 306 108 214 59 480 -121
659 -171 170 -386 235 -599 181 -144 -36 -207 -79 -448 -308 -92 -87 -147
-132 -155 -127 -7 4 -96 69 -198 144 -264 195 -398 286 -461 311 -71 28 -229
36 -309 14z m245 -77 c91 -23 256 -120 417 -246 l97 -76 -29 -55 c-16 -31 -32
-68 -35 -83 -10 -39 -27 -50 -59 -38 -71 27 -126 2 -126 -58 0 -36 30 -132 42
-132 3 0 17 17 29 38 12 20 24 39 25 41 2 2 26 -13 54 -34 28 -21 54 -35 57
-32 3 4 15 81 27 172 11 91 23 165 26 165 3 0 42 -30 87 -66 l81 -66 -75 -171
c-107 -247 -139 -313 -152 -321 -6 -4 -82 7 -167 25 l-156 32 6 56 c22 197 26
275 16 333 -24 154 -141 278 -261 278 -49 0 -125 -30 -168 -67 -52 -44 -97
-133 -106 -208 -14 -107 41 -232 128 -297 23 -17 94 -56 158 -87 l117 -57 -87
-132 c-60 -93 -93 -134 -110 -139 -29 -7 -105 28 -217 103 -139 91 -220 197
-266 344 -19 62 -23 96 -23 195 1 104 5 130 27 193 105 293 377 458 643 390z
m1568 -13 c106 -22 199 -77 298 -175 64 -63 94 -102 117 -150 94 -198 52 -412
-110 -566 -86 -81 -319 -259 -357 -272 -21 -7 -77 4 -251 50 -123 32 -226 60
-227 62 -3 3 93 262 103 278 2 3 48 -10 102 -29 204 -74 379 -50 510 70 82 76
103 167 58 262 -27 60 -81 109 -154 143 -48 22 -64 24 -150 20 -84 -3 -104 -8
-150 -33 -70 -38 -148 -123 -207 -227 -26 -45 -49 -85 -51 -86 -1 -2 -68 42
-148 98 -92 64 -144 106 -139 113 46 81 232 268 328 332 106 70 240 119 340
124 11 0 50 -6 88 -14z m-1574 -328 c23 -16 50 -48 71 -88 31 -57 35 -73 35
-139 0 -91 -25 -309 -37 -316 -11 -7 -189 87 -250 131 -64 47 -97 93 -110 156
-22 105 39 225 137 271 50 23 104 18 154 -15z m1597 -52 c136 -40 211 -167
151 -256 -28 -42 -251 -162 -277 -150 -8 5 -37 11 -63 15 -81 10 -157 37 -190
66 -30 26 -30 29 -19 66 18 58 104 166 166 209 50 34 123 62 167 64 8 1 38 -6
65 -14z m-674 -241 c77 -53 142 -103 146 -112 6 -17 -33 -138 -79 -239 -26
-60 -30 -63 -62 -63 -36 0 -368 58 -375 65 -3 2 42 106 99 230 73 157 108 224
117 220 8 -3 77 -48 154 -101z m-618 -378 c77 -17 141 -36 141 -41 0 -30 -119
-355 -130 -355 -14 0 -361 117 -382 129 -8 4 20 57 84 158 89 141 98 152 121
146 13 -3 88 -20 166 -37z m436 -81 c91 -14 172 -29 182 -33 14 -6 7 -31 -58
-196 -41 -104 -82 -194 -91 -201 -13 -9 -52 -3 -197 33 -100 25 -182 46 -183
47 -7 4 122 352 135 368 9 9 22 15 31 13 9 -3 90 -16 181 -31z m497 -100 c112
-25 206 -45 208 -45 5 0 -224 -361 -239 -377 -11 -12 -19 -10 -302 47 l-52 11
69 181 c65 170 91 228 105 228 3 0 98 -20 211 -45z m431 -149 c220 -110 302
-206 344 -400 18 -86 5 -268 -26 -361 -109 -320 -331 -505 -606 -505 -147 0
-275 50 -412 158 -102 81 -338 365 -338 407 0 28 185 401 202 408 9 3 89 -9
179 -27 160 -31 164 -32 163 -56 0 -14 -7 -88 -14 -165 -11 -111 -11 -154 -2
-200 29 -143 142 -209 291 -171 108 28 194 92 225 168 9 21 16 65 16 100 0 77
-26 134 -83 183 -35 30 -216 126 -293 155 l-24 10 36 72 c67 134 179 278 215
278 11 0 68 -24 127 -54z m-1584 -66 c110 -39 202 -73 207 -75 6 -4 -14 -58
-78 -214 -5 -11 -24 -12 -107 -5 -56 5 -144 9 -196 9 -84 0 -102 -3 -152 -28
-119 -58 -201 -203 -183 -323 13 -86 98 -149 258 -191 65 -17 67 -17 109 4 36
17 61 45 136 149 50 71 108 159 128 197 l35 68 52 -28 c56 -30 227 -194 227
-217 0 -22 -172 -253 -240 -323 -104 -107 -221 -149 -385 -141 -162 9 -296 71
-419 193 -181 179 -195 346 -49 554 55 78 419 441 443 441 9 0 105 -32 214
-70z m582 -182 l81 -23 -86 -186 -86 -185 -130 108 c-189 158 -173 127 -125
249 23 57 44 107 46 110 4 7 75 -11 300 -73z m686 -149 c190 -65 275 -150 266
-266 -6 -68 -44 -117 -123 -158 -106 -54 -201 -38 -248 43 l-18 31 37 -11 c43
-11 121 -4 171 17 31 13 33 17 33 65 0 44 -4 56 -30 82 -16 16 -30 31 -30 34
0 2 21 4 46 4 40 0 45 -2 39 -17 -4 -10 -10 -30 -13 -46 -4 -23 0 -29 32 -42
19 -8 38 -15 41 -15 9 0 5 94 -6 134 l-11 39 -124 -5 c-68 -3 -127 -8 -131
-12 -4 -4 -2 -16 5 -26 6 -11 15 -44 18 -73 6 -53 6 -54 -28 -75 -55 -34 -58
-31 -58 64 0 124 34 254 66 254 2 0 32 -10 66 -21z m-1274 -30 c53 -6 99 -13
101 -15 14 -14 -214 -351 -252 -374 -41 -25 -90 -25 -147 1 -91 41 -140 96
-140 157 0 39 42 119 87 166 74 76 141 89 351 65z"/>
        <path d="M11054 8836 c13 -53 26 -99 30 -103 3 -3 28 12 55 35 l49 41 6 -30
c5 -26 10 -30 33 -27 27 3 29 7 40 83 7 43 10 81 8 83 -2 2 -57 6 -123 9
l-120 6 22 -97z"/>
        <path d="M9610 9354 c0 -3 4 -13 9 -23 7 -12 5 -40 -6 -85 -8 -37 -13 -69 -11
-71 2 -2 44 -7 94 -11 104 -8 129 0 204 66 l45 39 -22 22 -22 22 -37 -32 c-43
-38 -81 -57 -92 -46 -4 4 -1 10 7 13 31 11 51 42 45 70 -4 15 -9 30 -11 35 -5
8 -203 10 -203 1z"/>
        <path d="M11185 9310 c3 -10 -1 -33 -10 -50 -32 -61 -6 -115 64 -135 22 -7 23
-5 19 29 l-4 36 39 -37 39 -38 47 51 48 52 18 -54 c10 -30 21 -54 25 -54 4 0
15 30 25 68 10 37 20 72 22 79 3 7 -23 26 -63 45 -42 21 -68 29 -71 22 -14
-40 -25 -43 -103 -28 -41 8 -76 19 -78 24 -7 19 -23 10 -17 -10z"/>
        <path d="M10596 9094 c-10 -10 -16 -33 -16 -64 0 -33 -5 -50 -15 -54 -24 -9
-18 -21 20 -39 40 -19 116 -22 146 -7 27 15 47 59 51 115 3 45 1 48 -26 58
-24 8 -32 7 -42 -8 -12 -16 -14 -16 -36 -1 -29 20 -62 20 -82 0z"/>
        <path d="M9990 8732 c-40 -20 -65 -77 -55 -128 9 -50 27 -59 89 -45 116 26
126 30 126 56 0 21 -5 25 -31 25 -31 0 -31 0 -14 26 19 29 11 45 -36 70 -35
18 -37 18 -79 -4z"/>
        <path d="M10392 8621 c-24 -16 -34 -53 -22 -82 23 -55 75 -75 186 -71 51 2 51
2 68 46 9 24 20 61 23 81 l6 36 -38 -3 c-33 -3 -40 -8 -52 -38 l-13 -35 3 36
3 36 -77 0 c-42 0 -81 -2 -87 -6z"/>
        <path d="M10861 8447 c-6 -35 -11 -73 -11 -85 0 -25 51 -64 58 -44 2 6 11 21
21 33 l18 22 39 -26 c61 -42 64 -39 64 64 0 100 0 100 -70 64 -22 -11 -30 -10
-66 11 l-42 25 -11 -64z"/>
        <path d="M10708 8018 c-45 -12 -47 -21 -12 -45 25 -16 26 -20 20 -80 -4 -35
-3 -63 1 -63 4 0 31 10 60 22 l52 21 35 -26 c19 -15 37 -27 40 -27 10 0 16
106 8 135 -18 64 -103 90 -204 63z"/>
        <path d="M9673 8352 c-29 -20 -53 -39 -53 -42 0 -3 20 -11 44 -18 37 -10 43
-15 39 -32 -6 -21 21 -60 41 -60 6 0 32 16 59 35 40 30 47 40 47 69 0 23 -8
42 -26 60 -39 38 -86 35 -151 -12z"/>
        <path d="M10325 8190 c-13 -14 -16 -28 -11 -57 4 -21 7 -47 8 -59 0 -15 17
-29 65 -53 36 -18 68 -30 70 -27 3 3 8 52 10 110 l6 106 -65 0 c-52 0 -68 -4
-83 -20z"/>
        <path d="M9670 7991 c-67 -8 -77 -13 -85 -51 -5 -21 1 -46 19 -85 26 -58 30
-61 70 -45 22 8 25 16 28 62 2 43 7 54 22 56 15 3 17 0 11 -14 -19 -47 -17
-53 16 -67 l34 -14 12 36 c6 20 12 46 12 59 1 26 -44 73 -68 71 -9 -1 -41 -5
-71 -8z"/>
        <path d="M12090 9073 c-23 -8 -70 -55 -85 -83 -17 -33 -28 -376 -17 -534 8
-117 9 -119 40 -147 45 -41 108 -40 181 2 29 17 55 39 58 49 4 13 19 19 63 24
48 6 63 12 84 36 13 16 27 47 31 69 l7 40 42 -5 c54 -8 99 14 123 59 25 46 25
173 0 211 -24 37 -79 59 -126 51 -36 -6 -37 -6 -49 39 -6 25 -21 54 -32 64
-22 20 -88 36 -112 27 -7 -3 -20 7 -29 22 -8 16 -40 40 -70 56 -53 26 -78 31
-109 20z m99 -89 c18 -23 21 -41 21 -116 0 -84 -1 -88 -17 -73 -13 14 -29 16
-75 12 l-58 -5 0 84 c0 71 3 87 20 104 30 30 83 27 109 -6z m12 -585 c-7 -23
-20 -40 -36 -47 -37 -17 -50 -15 -82 12 -28 24 -28 26 -28 140 0 131 4 139 64
123 54 -15 67 -6 77 50 7 39 10 22 12 -97 2 -81 -1 -161 -7 -181z"/>
        <path d="M9010 8917 c-13 -7 -38 -31 -55 -53 -26 -36 -36 -42 -80 -47 -64 -8
-96 -33 -114 -89 l-14 -45 -48 5 c-61 6 -93 -14 -120 -71 -22 -50 -25 -134 -5
-180 23 -55 51 -72 117 -72 55 1 59 -1 59 -22 0 -13 7 -39 15 -59 16 -39 62
-64 118 -64 28 0 38 -6 58 -37 45 -71 134 -91 208 -47 56 33 62 55 68 281 8
267 -1 391 -31 435 -45 68 -118 94 -176 65z m111 -83 c21 -22 24 -37 27 -112
2 -48 -1 -99 -7 -114 -10 -26 -14 -28 -71 -28 -40 0 -61 -4 -62 -12 0 -7 -5
34 -9 92 -8 121 1 164 39 185 39 21 55 18 83 -11z m19 -511 c0 -82 -3 -95 -23
-119 -20 -23 -28 -26 -60 -20 -55 10 -67 35 -67 141 l0 90 75 0 75 0 0 -92z"/>
        <path d="M12682 8711 c3 -82 4 -85 30 -92 16 -4 37 -2 53 7 21 11 76 14 229
14 185 1 199 2 181 16 -40 32 -121 63 -193 73 -41 7 -87 18 -103 27 -36 18
-62 12 -88 -21 -17 -23 -20 -23 -32 -9 -8 9 -12 27 -11 39 3 19 -2 23 -33 27
l-36 4 3 -85z"/>
        <path d="M8211 8559 c-79 -10 -145 -19 -147 -21 -2 -2 -1 -13 2 -25 5 -19 19
-22 177 -37 95 -10 180 -20 189 -22 15 -4 17 0 13 23 -2 15 -7 45 -10 66 -6
35 -8 37 -43 36 -20 -1 -102 -10 -181 -20z"/>
        <path d="M10053 7170 c-43 -26 -63 -68 -63 -134 0 -47 4 -60 30 -89 16 -19 43
-40 59 -47 26 -10 29 -16 33 -72 6 -76 31 -102 117 -119 l58 -12 -8 -36 c-4
-20 -5 -47 -2 -61 8 -35 60 -87 99 -100 33 -11 33 -11 13 -31 -20 -20 -26 -68
-9 -85 6 -6 23 -107 37 -225 14 -118 29 -218 33 -222 11 -12 53 200 55 276 2
49 7 73 20 87 18 20 18 21 -1 35 -10 8 -27 17 -36 20 -23 8 -23 17 1 37 18 15
22 14 70 -18 32 -22 51 -30 51 -21 0 20 -56 105 -80 119 -27 17 -26 22 15 37
19 7 47 28 61 47 23 29 26 41 22 88 l-4 53 50 13 c29 7 62 25 78 41 24 23 28
36 28 81 0 53 0 53 42 73 89 43 112 133 53 211 -58 76 -48 74 -440 74 -330 0
-352 -1 -382 -20z m308 -58 c-20 -16 -21 -21 -12 -62 20 -86 28 -81 -120 -78
-131 3 -132 3 -153 31 -20 27 -20 28 -1 64 28 51 61 62 194 63 110 0 113 -1
92 -18z m400 8 c74 -21 97 -92 45 -137 -26 -22 -33 -23 -184 -21 -91 0 -136 4
-107 7 l50 6 9 52 c7 43 6 57 -8 78 l-16 25 87 0 c49 0 104 -5 124 -10z m-402
-240 l88 0 -10 -55 -10 -55 -93 0 c-102 0 -142 12 -150 46 -11 43 30 80 74 68
8 -2 53 -4 101 -4z m341 -15 c11 -13 10 -20 -1 -41 -19 -36 -59 -54 -123 -54
-59 0 -58 -1 -71 73 l-6 37 94 0 c73 0 97 -4 107 -15z"/>
        <path d="M9677 7124 c-20 -20 -37 -46 -37 -58 1 -21 52 -86 68 -86 14 0 58 53
81 95 l21 40 -3 -55 c-2 -55 -2 -55 27 -55 24 0 31 6 42 35 19 54 17 98 -5
110 -11 5 -50 10 -88 10 -65 0 -70 -2 -106 -36z"/>
        <path d="M11091 7103 c-15 -12 -25 -37 -31 -78 -16 -99 -18 -96 48 -89 36 4
67 2 79 -5 17 -8 25 -7 42 7 19 16 20 23 12 85 -5 37 -15 74 -21 82 -18 21
-102 20 -129 -2z"/>
    </g>
</svg>
