<?xml version="1.0" standalone="no"?>
<!DOCTYPE svg PUBLIC "-//W3C//DTD SVG 20010904//EN"
        "http://www.w3.org/TR/2001/REC-SVG-20010904/DTD/svg10.dtd">
<svg version="1.0" xmlns="http://www.w3.org/2000/svg"
     width="512px" height="512px" viewBox="0 0 2109.000000 2109.000000"
     preserveAspectRatio="xMidYMid meet">
    <metadata>
        Created by potrace 1.16, written by Peter Selinger 2001-2019
    </metadata>
    <g transform="translate(0.000000,2109.000000) scale(0.100000,-0.100000)"
       fill="#000000" stroke="none">
        <path d="M12285 17706 c-33 -8 -648 -202 -1368 -430 l-1307 -416 -75 60 c-288
228 -684 414 -1034 485 -249 50 -543 68 -777 46 -1183 -110 -2129 -1012 -2299
-2193 -34 -233 -30 -543 11 -783 21 -127 75 -333 118 -450 55 -150 174 -385
265 -522 l80 -122 -79 -3953 c-44 -2174 -80 -4056 -81 -4183 -2 -269 8 -322
88 -478 38 -74 65 -110 138 -183 144 -145 291 -217 485 -236 122 -12 6179
-131 6245 -123 271 34 502 197 620 440 71 145 75 173 87 590 6 204 13 373 17
377 3 3 544 176 1201 382 657 207 1223 388 1258 402 364 152 560 569 448 955
-14 46 -725 2285 -1581 4974 -1149 3611 -1566 4908 -1593 4958 -49 90 -118
175 -195 237 -71 59 -214 132 -302 156 -82 22 -292 28 -370 10z m290 -491 c64
-28 119 -76 149 -129 13 -22 94 -261 179 -531 86 -269 159 -499 163 -509 6
-16 4 -18 -12 -12 -82 33 -159 36 -1424 61 -701 14 -1309 25 -1350 25 l-75 0
-49 88 c-28 48 -78 128 -112 177 l-61 91 1191 379 c655 208 1207 382 1226 386
50 10 117 0 175 -26z m-4295 -160 c955 -148 1689 -891 1836 -1860 19 -131 22
-417 5 -550 -64 -490 -281 -933 -623 -1275 -416 -417 -950 -639 -1535 -640
-587 -1 -1121 221 -1538 637 -501 500 -732 1221 -609 1903 112 626 480 1163
1024 1496 258 157 598 271 907 304 121 12 406 4 533 -15z m3285 -1435 c1375
-25 1299 -22 1360 -49 98 -43 160 -113 190 -214 12 -41 3 -616 -80 -4750 -124
-6223 -110 -5634 -135 -5700 -26 -70 -83 -134 -151 -172 -52 -29 -60 -30 -199
-33 -80 -2 -1477 24 -3106 57 -2639 53 -2966 62 -3010 77 -102 34 -178 114
-210 219 -13 45 -7 413 62 3930 42 2134 78 3886 80 3894 4 11 7 11 23 0 91
-67 294 -197 371 -238 270 -143 590 -243 905 -282 129 -16 461 -16 590 0 757
94 1412 496 1834 1126 399 597 529 1350 352 2043 l-29 112 37 0 c20 0 522 -9
1116 -20z m3191 -4886 c891 -2797 1118 -3522 1122 -3574 8 -127 -76 -261 -190
-304 -26 -10 -546 -177 -1155 -371 -696 -222 -1109 -349 -1110 -342 -3 14 164
8229 167 8237 3 7 -45 155 1166 -3646z"/>
        <path d="M7885 16624 c-300 -181 -703 -595 -917 -940 -162 -262 -238 -481
-238 -685 0 -497 382 -886 1065 -1084 165 -48 211 -44 466 44 484 168 800 449
899 801 27 95 37 280 21 374 -62 355 -355 806 -775 1195 -164 151 -405 331
-445 331 -9 0 -43 -16 -76 -36z m170 -165 c319 -218 679 -628 852 -972 155
-310 171 -546 53 -792 -91 -189 -245 -336 -495 -471 l-90 -49 -120 0 c-96 0
-134 5 -191 22 -122 39 -194 108 -194 186 0 68 25 102 159 211 70 57 147 125
170 152 79 88 121 207 121 339 0 156 -51 277 -165 390 -41 41 -94 82 -127 99
-65 32 -80 51 -103 128 -14 50 -14 60 -1 99 8 24 14 45 12 46 -2 2 -16 -1 -31
-7 l-28 -11 7 52 c9 63 47 160 80 204 19 25 31 31 50 28 38 -8 50 25 43 121
-5 85 -33 176 -68 220 -32 41 -37 31 -16 -31 23 -68 27 -172 8 -226 -7 -21
-47 -84 -90 -140 -97 -130 -127 -206 -140 -356 -6 -70 -7 -74 -23 -58 -24 25
-30 9 -36 -100 l-5 -94 26 6 c20 6 35 0 64 -23 21 -16 48 -34 61 -41 12 -6 22
-16 22 -21 0 -5 -29 -23 -65 -41 -53 -26 -67 -29 -80 -19 -8 7 -15 19 -15 27
0 24 -17 5 -24 -27 -3 -18 1 -46 10 -70 9 -22 13 -51 10 -64 -12 -48 5 -87 61
-140 89 -84 119 -148 100 -219 -11 -39 6 -27 38 27 34 58 43 127 20 162 -14
22 -22 25 -50 20 -27 -5 -35 -2 -49 18 -36 56 -12 108 66 141 118 49 228 -34
228 -170 -1 -102 -55 -168 -230 -280 -120 -77 -159 -111 -200 -175 -90 -141
-74 -304 42 -419 50 -51 48 -51 -97 6 -386 152 -633 386 -717 680 -34 117 -31
295 6 418 57 189 209 459 383 675 93 116 313 340 421 429 84 69 229 171 242
171 3 0 46 -27 95 -61z"/>
        <path d="M6482 14310 c-68 -14 -142 -53 -209 -109 -93 -78 -186 -101 -270 -66
-20 8 -39 13 -42 9 -8 -8 100 -108 163 -150 65 -43 153 -74 208 -74 77 0 119
19 177 76 30 30 52 56 49 59 -3 3 -25 -4 -49 -15 -51 -23 -119 -27 -119 -7 0
22 57 92 98 121 100 69 158 58 280 -56 177 -164 277 -218 402 -217 l75 1 -63
14 c-35 8 -86 26 -113 41 -68 36 -160 122 -215 199 -85 119 -159 167 -279 178
-27 3 -69 1 -93 -4z"/>
        <path d="M9304 14310 c-98 -20 -152 -59 -241 -177 -100 -133 -209 -212 -331
-238 l-57 -13 75 -1 c124 -1 232 57 390 209 41 39 86 77 100 85 64 33 123 27
190 -20 37 -26 100 -104 100 -124 0 -18 -72 -12 -119 9 -24 11 -46 18 -49 16
-2 -3 6 -18 19 -33 102 -123 237 -136 399 -37 63 38 188 149 179 158 -3 3 -22
-1 -42 -9 -84 -35 -171 -15 -264 62 -77 64 -146 98 -223 113 -59 11 -68 11
-126 0z"/>
        <path d="M8110 11810 l0 -120 78 0 c42 0 448 -9 902 -20 454 -11 841 -20 861
-20 l37 0 4 118 c2 64 4 118 3 119 -2 4 -1657 43 -1787 43 l-98 0 0 -120z"/>
        <path d="M6940 11031 l0 -119 83 -6 c136 -9 4189 -97 4195 -91 3 3 8 56 10
119 l4 113 -213 7 c-118 4 -1008 24 -1979 46 -971 21 -1840 42 -1932 45 l-168
6 0 -120z"/>
        <path d="M7286 10299 c-3 -17 -6 -71 -6 -119 l0 -88 83 -6 c118 -8 3465 -81
3470 -76 3 3 8 58 12 123 l7 117 -88 0 c-113 0 -3086 67 -3305 74 l-166 6 -7
-31z"/>
        <path d="M6898 9194 c-3 -66 -4 -120 -3 -122 5 -5 2499 -62 2503 -57 3 2 7 56
10 119 l5 114 -134 6 c-74 3 -557 15 -1074 26 -517 11 -1021 23 -1121 26
l-181 6 -5 -118z"/>
        <path d="M6878 8353 c-1 -57 -2 -111 -2 -120 -1 -17 155 -22 2679 -80 1474
-34 2710 -62 2746 -62 l67 -1 4 118 c2 64 4 118 3 120 -1 1 -1176 29 -2611 62
-1435 32 -2671 61 -2746 63 l-138 3 -2 -103z"/>
        <path d="M6858 7474 c-2 -66 -3 -121 -1 -123 2 -3 5486 -131 5489 -127 1 0 4
54 6 118 l4 117 -70 5 c-39 3 -1203 30 -2586 61 -1383 30 -2588 58 -2677 61
l-161 7 -4 -119z"/>
        <path d="M6838 6603 c-2 -65 -3 -119 -3 -120 1 -3 5270 -123 5391 -123 l101 0
6 118 c2 64 4 117 3 118 -1 1 -5475 125 -5488 124 -4 0 -8 -53 -10 -117z"/>
        <path d="M6815 5625 c-4 -56 -5 -110 -3 -121 3 -19 71 -21 2683 -81 1474 -34
2710 -62 2748 -62 l67 -1 0 119 0 119 -192 6 c-106 4 -1286 31 -2623 61 -1337
30 -2485 56 -2552 58 l-121 4 -7 -102z"/>
        <path d="M16563 8354 c-44 -22 -75 -74 -75 -127 -1 -28 43 -178 130 -447 73
-223 139 -436 149 -475 24 -97 24 -332 1 -437 -56 -251 -198 -481 -391 -634
-138 -109 -228 -148 -692 -298 -231 -75 -431 -145 -445 -155 -54 -38 -76 -131
-46 -189 27 -51 62 -75 119 -80 48 -4 95 9 413 112 465 151 492 161 599 214
368 183 635 518 730 916 50 209 52 445 5 643 -25 107 -277 881 -296 911 -37
58 -133 79 -201 46z"/>
        <path d="M5111 5968 c-71 -48 -69 -34 -81 -540 -7 -319 -7 -484 0 -549 69
-611 505 -1092 1105 -1221 97 -20 430 -35 869 -39 189 -1 227 1 254 15 108 56
98 230 -17 275 -15 6 -219 15 -486 21 -330 7 -481 14 -535 25 -419 83 -741
384 -857 801 l-28 99 3 522 3 523 -39 42 c-36 38 -44 42 -98 46 -50 3 -65 0
-93 -20z"/>
    </g>
</svg>
