<?xml version="1.0" standalone="no"?>
<!DOCTYPE svg PUBLIC "-//W3C//DTD SVG 20010904//EN"
        "http://www.w3.org/TR/2001/REC-SVG-20010904/DTD/svg10.dtd">
<svg version="1.0" xmlns="http://www.w3.org/2000/svg"
     width="512px" height="512px" viewBox="0 0 2109.000000 2109.000000"
     preserveAspectRatio="xMidYMid meet">
    <metadata>
        Created by potrace 1.16, written by Peter Selinger 2001-2019
    </metadata>
    <g transform="translate(0.000000,2109.000000) scale(0.100000,-0.100000)"
       fill="#000000" stroke="none">
        <path d="M10414 18268 c-171 -173 -211 -225 -235 -305 l-12 -43 -94 0 -93 0 0
-100 c0 -97 -1 -100 -22 -100 -13 0 -52 -14 -87 -30 -53 -25 -94 -60 -225
-190 -88 -87 -158 -162 -154 -165 3 -4 23 -2 44 4 29 8 71 43 174 145 74 74
153 144 176 155 99 51 207 51 310 -1 62 -31 66 -38 39 -70 -23 -27 -25 -27
-59 -13 -51 22 -171 19 -221 -4 -22 -10 -69 -49 -105 -86 l-65 -67 40 7 c26 4
54 20 83 47 53 49 103 70 162 70 59 0 122 -25 114 -46 -5 -12 1 -16 22 -16 24
0 33 8 53 46 14 25 45 64 70 86 180 160 452 125 585 -77 29 -43 43 -55 63 -55
18 0 24 4 20 14 -8 20 61 46 123 46 63 0 94 -12 150 -59 42 -35 110 -61 110
-42 0 16 -118 120 -155 135 -50 21 -163 21 -216 0 l-41 -17 -23 29 c-28 35
-23 44 54 81 46 22 70 27 136 27 121 1 169 -25 325 -179 105 -104 132 -125
168 -133 23 -6 42 -7 42 -2 0 4 -67 73 -150 154 -118 116 -163 153 -212 176
-35 17 -73 30 -85 30 -22 0 -23 3 -23 100 l0 100 -94 0 -94 0 -17 53 c-9 28
-26 68 -38 87 -21 34 -354 380 -367 380 -3 0 -83 -78 -176 -172z m343 -71
c138 -140 163 -170 181 -220 39 -102 22 -239 -37 -316 l-18 -24 -31 23 -30 22
19 42 c12 26 19 64 19 106 0 97 -27 145 -157 273 l-109 107 -120 -122 c-88
-89 -125 -134 -134 -163 -18 -54 -16 -152 4 -199 l17 -40 -28 -23 c-15 -12
-32 -21 -37 -20 -19 6 -66 105 -74 157 -10 68 2 149 29 203 19 37 323 357 339
357 4 0 79 -73 167 -163z"/>
        <path d="M12970 17905 c-218 -100 -276 -136 -325 -201 l-31 -41 -90 34 c-102
38 -94 36 -94 24 0 -5 -14 -45 -30 -89 l-31 -79 -77 -1 c-89 0 -102 -4 -349
-117 -109 -50 -168 -82 -160 -87 31 -20 86 -5 246 68 91 42 189 80 216 84 118
19 253 -39 325 -140 l20 -28 -34 -20 -34 -20 -27 28 c-76 79 -210 91 -343 30
-40 -18 -69 -37 -65 -41 16 -16 79 -11 126 10 66 29 130 27 194 -4 65 -33 78
-47 64 -73 -9 -17 -7 -20 16 -25 19 -3 38 5 77 34 112 86 273 103 399 41 109
-54 200 -174 214 -284 7 -50 41 -71 69 -43 14 13 28 16 61 11 84 -11 151 -61
191 -142 18 -35 67 -73 79 -60 2 2 -12 38 -31 79 -56 117 -133 170 -249 171
l-67 1 -10 35 c-6 23 -6 38 1 45 5 5 51 10 102 10 86 0 96 -2 155 -34 35 -19
79 -52 97 -74 19 -21 66 -110 105 -196 60 -129 78 -161 106 -179 22 -14 34
-18 34 -10 0 7 -37 94 -82 193 -77 167 -87 185 -151 249 l-68 69 31 79 c32 86
35 98 21 98 -5 0 -45 13 -88 30 l-78 30 3 56 c2 31 -1 77 -8 102 -15 64 -202
472 -215 472 -5 -1 -102 -43 -215 -95z m290 -173 c103 -228 115 -276 87 -373
-21 -70 -70 -144 -120 -180 l-40 -29 -19 31 -19 31 32 36 c53 60 72 114 67
196 -3 62 -12 88 -67 209 -36 76 -69 136 -75 133 -90 -37 -270 -126 -298 -148
-52 -40 -90 -123 -93 -201 l-2 -62 -37 -9 c-20 -4 -40 -5 -44 -1 -4 4 -7 50
-7 103 0 87 3 103 28 150 40 76 96 126 195 172 142 67 317 147 318 146 1 -1
43 -92 94 -204z"/>
        <path d="M7919 17823 c-151 -318 -152 -321 -158 -417 l-6 -89 -87 -29 -87 -29
32 -91 31 -91 -24 -15 c-61 -39 -111 -105 -166 -220 -100 -207 -143 -302 -137
-302 2 0 19 8 35 18 25 14 48 53 119 198 76 157 95 188 139 227 73 65 144 90
243 85 43 -3 82 -9 87 -14 5 -5 6 -22 2 -39 -8 -29 -11 -30 -78 -36 -81 -6
-135 -30 -184 -80 -35 -37 -109 -174 -98 -184 16 -16 62 24 88 76 46 90 121
139 214 139 30 0 36 -4 36 -21 0 -16 4 -19 23 -13 30 9 28 7 38 61 19 99 89
201 178 257 132 84 311 76 436 -20 53 -40 82 -43 94 -11 20 52 100 97 170 97
22 0 64 -9 93 -21 50 -19 118 -20 118 -1 0 4 -35 23 -77 41 -70 30 -85 33
-148 29 -76 -5 -115 -21 -170 -69 l-35 -31 -30 22 c-25 18 -28 25 -20 40 20
37 86 93 140 119 46 22 69 26 140 26 l85 0 164 -78 c153 -73 166 -77 205 -69
l41 9 -150 72 c-215 104 -239 113 -335 120 l-85 6 -29 83 c-16 47 -34 82 -41
82 -8 0 -49 -13 -93 -29 l-79 -30 -14 26 c-35 65 -112 117 -331 221 -118 56
-218 102 -221 102 -4 0 -34 -57 -68 -127z m293 -36 c106 -51 210 -108 230
-126 80 -70 129 -233 98 -325 -10 -32 -16 -37 -34 -32 -11 3 -26 6 -32 6 -7 0
-13 30 -16 78 -5 90 -29 143 -84 192 -34 29 -302 165 -310 157 -2 -2 -34 -66
-71 -143 -64 -133 -67 -142 -67 -214 0 -80 17 -126 68 -187 l24 -29 -20 -32
c-24 -38 -34 -35 -99 35 -87 93 -113 229 -66 343 41 99 172 370 179 370 4 0
94 -42 200 -93z"/>
        <path d="M10530 17591 c-56 -12 -104 -39 -145 -81 l-39 -40 32 0 c20 0 48 11
73 29 49 36 129 54 183 42 21 -5 61 -23 88 -40 46 -29 98 -41 98 -23 0 17 -67
72 -110 91 -53 23 -131 33 -180 22z"/>
        <path d="M12675 17206 l-50 -24 30 -12 c22 -8 39 -9 66 -1 57 17 125 13 174
-10 41 -19 115 -88 115 -107 0 -11 51 -35 57 -28 11 11 -8 54 -42 98 -76 101
-235 139 -350 84z"/>
        <path d="M10277 17200 c-833 -50 -1628 -250 -2366 -595 -1480 -691 -2657
-1939 -3256 -3449 -322 -813 -469 -1627 -452 -2511 6 -316 22 -517 63 -805
291 -2046 1574 -3845 3419 -4796 698 -359 1445 -586 2220 -673 541 -61 1128
-52 1663 25 1065 152 2085 577 2947 1228 308 232 670 567 933 861 1203 1348
1781 3138 1597 4945 -133 1301 -657 2524 -1510 3525 -164 192 -518 546 -710
710 -1044 890 -2300 1410 -3685 1525 -175 14 -686 20 -863 10z m703 -330 c91
-6 227 -17 304 -25 76 -8 142 -15 147 -15 5 0 9 -205 9 -460 l0 -460 -22 5
c-13 3 -77 11 -143 19 -451 54 -987 46 -1439 -23 l-116 -17 0 457 0 457 23 5
c40 10 389 48 522 56 191 12 526 12 715 1z m1001 -140 c1035 -235 1974 -725
2771 -1448 58 -53 106 -100 105 -104 -1 -4 -146 -147 -322 -316 l-320 -308
-140 123 c-530 465 -1117 803 -1775 1024 -171 57 -371 114 -502 143 l-28 6 0
460 c0 414 2 460 16 460 9 0 96 -18 195 -40z m-2581 -443 l0 -462 -112 -29
c-760 -196 -1556 -630 -2143 -1170 l-91 -83 -323 316 -324 316 124 111 c679
612 1436 1047 2287 1316 132 41 534 147 565 148 16 0 17 -29 17 -463z m1755
-670 c66 -9 157 -21 203 -27 l82 -12 0 -1784 0 -1784 -860 0 -860 0 0 1774 0
1773 38 7 c133 23 310 47 415 56 67 5 138 12 157 14 85 10 712 -4 825 -17z
m766 -147 c542 -149 1074 -401 1526 -721 197 -141 518 -406 518 -429 0 -4
-459 -449 -1020 -990 -561 -540 -1055 -1017 -1097 -1058 l-78 -77 0 1658 c0
911 2 1657 3 1657 2 0 69 -18 148 -40z m-2521 -1626 l0 -1636 -437 430 c-241
237 -716 709 -1056 1050 l-618 618 83 75 c541 488 1167 842 1863 1055 77 24
146 43 153 44 9 0 12 -334 12 -1636z m-2631 404 c-238 -263 -471 -582 -649
-893 -202 -351 -396 -819 -504 -1215 l-34 -125 -461 -3 c-418 -2 -461 -1 -461
14 0 25 65 289 109 440 249 860 709 1694 1297 2348 49 55 102 115 118 134 l29
34 320 -320 320 -320 -84 -94z m8554 438 c556 -663 972 -1452 1202 -2280 38
-136 95 -371 95 -390 0 -3 -208 -6 -462 -6 l-463 0 -34 128 c-205 769 -612
1512 -1167 2128 l-82 91 321 311 322 311 84 -87 c46 -48 129 -141 184 -206z
m-1056 -668 c432 -490 743 -1009 957 -1600 53 -147 130 -398 124 -404 -3 -2
-761 -3 -1685 -2 l-1680 3 1091 1052 c600 579 1094 1053 1097 1053 3 0 46 -46
96 -102z m-6120 -963 l1048 -1044 -1632 -1 c-1182 0 -1633 3 -1633 11 0 20 60
217 107 352 173 499 450 1002 781 1417 100 125 262 310 273 310 5 0 480 -470
1056 -1045z m-2641 -1417 c-20 -123 -46 -341 -57 -480 -22 -291 -3 -894 36
-1115 l6 -33 -459 0 -459 0 -11 113 c-27 267 -34 461 -29 762 3 171 11 357 17
415 14 144 40 352 45 368 3 9 105 12 461 12 l457 0 -7 -42z m3894 -793 l0
-835 -1789 0 -1789 0 -6 43 c-37 259 -60 630 -51 847 10 257 42 561 76 728
l10 52 1775 0 1774 0 0 -835z m2040 0 l0 -835 -860 0 -860 0 0 835 0 835 860
0 860 0 0 -835z m3999 773 c55 -319 66 -468 66 -858 -1 -343 -7 -453 -43 -695
l-7 -50 -1843 -3 -1842 -2 0 835 0 835 1829 0 1829 0 11 -62z m1244 40 c4 -13
15 -104 26 -203 40 -353 50 -690 31 -1015 -10 -172 -27 -369 -36 -407 l-4 -23
-456 0 -457 0 6 38 c32 197 41 367 42 717 0 383 -10 536 -54 807 l-17 108 457
0 457 0 5 -22z m-11094 -2150 c190 -769 573 -1514 1089 -2116 57 -67 70 -87
61 -98 -6 -8 -151 -150 -321 -316 l-310 -303 -40 45 c-694 778 -1191 1762
-1408 2787 -16 79 -30 150 -30 158 0 13 57 15 458 15 l458 0 43 -172z m3433 8
c-92 -90 -585 -572 -1097 -1070 l-930 -907 -48 53 c-67 74 -217 268 -314 406
-255 362 -489 833 -631 1272 -44 135 -112 380 -112 402 0 5 742 8 1649 8
l1649 0 -166 -164z m2418 -1695 l0 -1859 -27 -6 c-246 -51 -828 -74 -1158 -47
-129 11 -460 55 -512 68 l-23 5 0 1849 0 1849 860 0 860 0 0 -1859z m3946
1842 c-2 -10 -20 -79 -40 -153 -44 -169 -138 -447 -211 -620 -194 -460 -478
-919 -805 -1299 -52 -60 -98 -110 -102 -110 -5 -1 -1716 1669 -2168 2115 l-85
84 1708 0 c1622 0 1708 -1 1703 -17z m1258 -20 c-17 -104 -79 -366 -118 -508
-203 -731 -544 -1421 -1005 -2033 -112 -149 -341 -422 -392 -468 l-24 -22
-319 314 -319 314 90 102 c576 661 959 1419 1167 2311 l6 27 461 0 460 0 -7
-37z m-7244 -1869 l0 -1716 -34 6 c-18 4 -105 29 -192 57 -523 167 -1018 422
-1449 745 -149 112 -245 192 -407 341 l-136 126 196 192 c567 554 2017 1965
2019 1965 2 0 3 -772 3 -1716z m3728 387 l903 -884 -23 -25 c-38 -40 -248
-223 -349 -304 -503 -401 -1109 -709 -1725 -878 -81 -22 -151 -40 -156 -40 -4
0 -8 779 -8 1732 l0 1731 228 -224 c125 -123 633 -622 1130 -1108z m-5843
-1373 c580 -489 1258 -844 1985 -1042 l125 -34 3 -461 c2 -446 2 -461 -17
-461 -10 0 -115 24 -232 54 -856 217 -1643 608 -2323 1155 -141 113 -363 311
-459 408 l-67 69 321 312 321 311 122 -113 c66 -63 166 -152 221 -198z m7625
-379 c0 -11 -269 -254 -405 -366 -771 -630 -1635 -1045 -2622 -1257 l-113 -24
0 462 0 462 153 38 c188 47 515 155 702 232 560 231 1106 581 1548 993 l99 91
319 -311 c175 -172 319 -315 319 -320z m-4955 -798 c267 -35 441 -44 785 -38
243 4 370 10 504 26 99 12 183 24 188 27 4 3 8 -202 8 -454 l0 -459 -38 -7
c-21 -3 -113 -13 -203 -23 -209 -22 -876 -25 -1074 -5 -151 15 -350 40 -382
47 l-23 5 0 457 0 456 43 -7 c23 -3 110 -15 192 -25z"/>
        <path d="M10435 14641 c-42 -19 -97 -74 -155 -156 -19 -28 -36 -53 -38 -57 -2
-5 46 -8 107 -8 116 0 273 -25 349 -55 23 -9 43 -18 43 -19 1 0 7 -201 13
-446 l12 -445 -24 -22 c-66 -57 -152 -21 -208 89 -21 42 -24 61 -24 160 -1
174 -12 241 -58 347 -59 136 -60 137 -128 71 -73 -72 -107 -131 -107 -184 0
-42 62 -197 82 -204 5 -2 17 8 27 22 9 14 20 26 25 26 5 0 9 -43 9 -95 l0 -95
-91 -45 -90 -46 40 -47 c22 -26 69 -76 104 -111 l65 -64 60 44 c59 43 59 44
55 89 -3 39 -2 43 9 26 84 -121 106 -136 197 -136 61 0 66 2 100 38 20 21 57
70 83 108 l46 69 -9 340 c-12 490 -12 496 -34 528 -34 52 -122 83 -316 111
-59 9 -135 16 -170 16 l-64 1 28 24 c35 31 65 32 263 5 190 -25 215 -25 249 2
30 23 85 104 85 124 0 9 -17 4 -51 -13 l-50 -26 -162 26 c-191 32 -219 33
-272 8z"/>
        <path d="M7735 11643 c22 -106 37 -224 33 -267 -2 -30 -16 -78 -32 -109 -43
-89 -115 -150 -320 -275 -203 -124 -241 -158 -300 -272 -43 -84 -58 -150 -58
-258 0 -106 23 -174 87 -261 34 -46 57 -66 107 -90 114 -56 292 -64 437 -19
68 21 134 74 186 148 25 37 27 46 23 112 -7 104 -83 275 -168 378 l-29 35 -99
-95 c-54 -52 -104 -107 -111 -122 -14 -29 -8 -74 16 -123 23 -45 115 -165 128
-165 6 0 40 29 75 65 68 69 78 69 79 4 1 -29 -44 -76 -99 -105 -75 -39 -214
-8 -336 76 -57 40 -121 136 -130 196 -18 121 34 180 295 335 136 82 202 128
247 173 86 87 99 129 99 316 0 143 0 146 -33 215 -42 88 -108 161 -97 108z
m-42 -1081 c9 -10 22 -33 28 -52 11 -31 10 -35 -17 -57 -56 -46 -61 -47 -89
-6 -32 48 -32 61 4 101 34 37 51 40 74 14z"/>
        <path d="M13760 11513 c-33 -117 -111 -263 -150 -279 -8 -3 -118 -13 -245 -21
-245 -16 -282 -21 -332 -52 -80 -50 -233 -289 -233 -366 0 -40 40 -164 84
-260 46 -100 168 -207 267 -235 28 -8 43 -5 94 20 88 43 121 40 183 -15 51
-46 75 -54 102 -32 29 23 153 168 148 173 -3 2 -24 -3 -48 -11 -68 -24 -117
-20 -150 13 -36 37 -66 129 -54 166 l9 27 40 -55 c22 -31 45 -56 51 -56 15 0
57 62 90 133 42 94 21 160 -99 307 l-49 60 -30 -18 c-88 -50 -175 -181 -185
-277 -3 -32 1 -92 12 -149 9 -53 14 -103 11 -111 -8 -22 -58 -18 -97 8 -47 32
-155 194 -175 264 -18 63 -15 153 7 199 29 58 41 61 361 87 318 26 338 31 381
88 22 31 34 127 38 305 3 130 -10 164 -31 87z"/>
        <path d="M10474 8255 c-65 -32 -123 -83 -179 -155 l-44 -57 127 -6 c155 -7
337 -45 380 -79 9 -8 12 -114 12 -470 0 -511 -2 -528 -58 -528 -33 0 -53 20
-108 105 -21 33 -40 62 -41 64 -2 3 -41 -35 -86 -83 -67 -71 -88 -87 -108 -84
l-24 3 -3 198 -2 198 41 -21 c22 -12 42 -20 44 -18 1 2 18 37 36 78 39 87 43
146 14 204 -18 37 -120 156 -134 156 -9 0 -125 -194 -156 -263 -26 -55 -26
-60 -23 -244 4 -223 18 -275 98 -355 68 -69 111 -66 227 13 23 16 48 29 55 29
7 0 40 -21 72 -45 44 -33 69 -45 95 -45 51 0 119 37 179 96 l52 53 0 474 0
474 -30 41 c-24 34 -40 44 -95 61 -71 22 -327 61 -402 61 l-47 0 20 21 c32 31
85 33 239 8 77 -12 174 -24 216 -26 l77 -4 28 38 c15 21 41 55 57 76 30 40 30
62 0 35 -40 -34 -89 -41 -176 -24 -288 55 -286 55 -353 21z"/>
        <path d="M8297 17170 c-85 -22 -159 -80 -193 -155 -13 -27 -22 -50 -20 -52 8
-8 66 21 71 36 8 26 64 80 104 100 55 28 101 33 161 17 35 -9 62 -11 78 -5 74
28 -108 81 -201 59z"/>
        <path d="M15185 16719 c-246 -22 -288 -31 -355 -73 l-54 -34 -70 59 c-38 32
-72 59 -75 59 -3 -1 -23 -22 -44 -48 -83 -104 -74 -97 -111 -79 -78 37 -138
40 -370 18 -120 -11 -221 -23 -224 -25 -2 -3 12 -13 32 -22 34 -17 47 -17 228
-1 206 18 243 15 319 -24 63 -32 116 -86 149 -151 35 -71 38 -98 11 -98 -11 0
-26 -3 -35 -6 -10 -4 -21 6 -34 33 -27 51 -77 97 -132 122 -46 21 -166 27
-235 12 l-30 -6 25 -18 c18 -13 45 -17 103 -17 100 0 165 -31 209 -100 27 -42
27 -46 11 -57 -16 -12 -16 -14 3 -28 10 -8 28 -12 39 -9 11 3 45 12 75 21 117
32 253 -3 348 -92 97 -90 146 -224 125 -340 -8 -49 -7 -57 9 -72 16 -14 21
-15 28 -3 7 11 16 11 54 -4 87 -33 130 -86 147 -183 10 -56 42 -113 56 -99 4
4 2 45 -4 92 -8 69 -16 93 -43 133 -38 55 -96 97 -155 112 -40 10 -40 11 -37
50 4 37 6 39 38 39 95 0 217 -86 269 -190 24 -47 30 -78 44 -230 15 -156 20
-180 41 -210 17 -24 26 -30 28 -19 1 8 -6 106 -17 216 -16 172 -23 210 -45
259 -15 32 -34 66 -43 76 -14 16 -11 23 46 90 l61 73 -33 30 c-17 17 -49 44
-71 62 l-39 32 18 43 c33 83 34 132 12 386 l-21 242 -26 -1 c-14 -1 -115 -10
-225 -20z m224 -251 c17 -184 18 -224 7 -271 -25 -106 -91 -187 -190 -233 -57
-26 -86 -30 -86 -11 0 6 -3 22 -6 34 -5 17 -1 25 12 30 74 27 146 109 165 191
9 38 -8 322 -21 343 -8 12 -241 -4 -315 -23 -84 -20 -163 -98 -185 -180 -10
-36 -13 -38 -52 -38 l-41 0 6 54 c14 133 137 261 272 282 41 6 408 41 412 39
1 -1 11 -98 22 -217z"/>
        <path d="M5726 16607 c-10 -61 -36 -392 -36 -452 1 -51 12 -98 43 -175 4 -10
-16 -32 -63 -70 -38 -30 -69 -59 -69 -65 -1 -5 24 -39 54 -75 30 -35 55 -68
55 -73 0 -5 -9 -20 -20 -34 -41 -52 -58 -126 -75 -314 -8 -101 -18 -203 -21
-226 -6 -51 4 -54 32 -10 17 26 24 60 33 172 22 260 35 307 113 391 48 53 126
92 196 101 l52 6 0 -40 c0 -38 -2 -41 -34 -47 -47 -9 -119 -59 -148 -104 -34
-50 -46 -92 -53 -187 l-7 -80 26 26 c21 20 29 41 37 94 14 102 64 169 145 195
32 11 39 10 49 -3 10 -15 13 -15 27 -1 12 13 14 33 10 103 -5 103 11 166 65
248 95 145 298 211 449 148 34 -14 39 -14 62 1 17 11 21 18 12 24 -15 9 16 74
52 107 41 38 115 65 171 62 49 -2 107 15 107 32 0 11 -134 22 -178 14 -61 -10
-140 -60 -170 -109 -15 -24 -31 -51 -37 -60 -8 -12 -19 -14 -48 -10 -35 6 -38
9 -32 33 21 85 96 181 174 220 76 39 124 43 309 26 159 -14 173 -14 207 2 19
9 35 19 35 23 0 3 -96 14 -213 24 -221 18 -260 16 -345 -20 -41 -17 -32 -23
-124 85 l-37 44 -72 -61 -72 -61 -27 19 c-69 49 -120 61 -335 81 -115 10 -229
21 -252 23 -41 5 -42 5 -47 -27z m266 -42 c95 -8 193 -20 218 -26 128 -30 235
-149 255 -283 l7 -46 -39 0 c-38 0 -40 2 -52 42 -28 92 -109 169 -194 184 -23
3 -102 12 -174 18 l-133 12 -4 -31 c-3 -16 -10 -85 -16 -152 -11 -134 -4 -193
31 -250 22 -36 96 -103 113 -103 28 -1 36 -16 25 -53 -12 -46 -26 -47 -107 -7
-69 35 -110 77 -148 152 -35 70 -39 131 -20 340 9 97 16 186 16 197 0 26 -3
26 222 6z"/>
        <path d="M14647 16154 c-16 -16 26 -44 67 -44 105 -1 196 -78 230 -193 6 -22
22 -47 35 -56 l24 -16 -6 55 c-18 149 -122 248 -272 258 -38 2 -73 1 -78 -4z"/>
        <path d="M6359 16044 c-100 -30 -189 -147 -189 -246 0 -27 4 -48 8 -48 15 0
42 36 42 56 0 36 50 122 87 150 44 34 96 53 144 54 35 0 77 29 62 43 -11 12
-106 6 -154 -9z"/>
        <path d="M15640 15153 c0 -5 12 -21 28 -35 21 -20 68 -37 201 -72 96 -26 190
-55 210 -66 55 -28 121 -98 149 -159 26 -56 43 -183 26 -193 -5 -3 -24 -3 -41
-1 -28 5 -33 10 -39 42 -3 20 -10 50 -15 68 -12 38 -81 118 -119 138 -38 20
-180 58 -188 51 -13 -13 44 -56 93 -70 98 -29 161 -97 178 -192 5 -26 2 -33
-14 -37 -17 -5 -19 -9 -10 -25 8 -15 25 -20 86 -25 282 -21 450 -311 326 -561
-23 -46 -27 -64 -20 -79 7 -11 17 -16 26 -13 10 4 32 -10 63 -41 65 -65 83
-131 59 -216 -10 -38 2 -107 20 -107 10 0 41 137 41 181 0 77 -50 169 -115
211 -32 22 -32 22 -18 57 8 20 17 38 19 40 8 9 94 -52 133 -94 51 -55 80 -119
88 -195 4 -47 -2 -83 -40 -226 -41 -153 -45 -174 -35 -212 6 -24 14 -40 18
-35 4 4 31 98 60 208 47 179 52 207 46 265 -4 36 -8 76 -9 90 -2 20 9 30 63
62 36 22 71 43 79 47 10 6 2 26 -35 90 l-47 82 36 37 c55 57 80 119 141 350
31 117 59 218 62 226 4 9 -56 29 -233 76 -220 58 -243 62 -318 57 -44 -2 -87
-7 -95 -11 -11 -4 -27 15 -60 74 -25 44 -49 80 -55 80 -5 -1 -44 -21 -85 -45
l-74 -44 -42 39 c-62 57 -100 72 -314 129 -107 29 -203 54 -212 57 -10 3 -18
1 -18 -3z m1234 -376 c110 -30 202 -59 203 -64 2 -6 -21 -102 -52 -214 -62
-226 -86 -276 -165 -334 -72 -53 -137 -71 -233 -66 -26 1 -28 4 -25 39 3 36 4
37 53 43 87 11 170 68 208 144 18 36 90 305 83 312 -7 8 -256 73 -301 80 -73
10 -152 -21 -214 -83 -53 -53 -55 -54 -88 -42 -18 7 -33 17 -33 23 0 22 58
102 100 138 24 20 66 46 94 56 84 33 148 27 370 -32z"/>
        <path d="M5310 14966 c-202 -57 -245 -76 -305 -131 l-39 -36 -41 22 c-22 12
-59 33 -82 46 l-41 24 -48 -85 c-46 -81 -49 -84 -74 -74 -14 6 -59 11 -100 11
-63 1 -112 -10 -300 -62 -124 -35 -227 -65 -229 -67 -7 -6 121 -458 141 -497
11 -22 37 -59 60 -83 l40 -43 -46 -82 c-36 -63 -44 -84 -34 -91 7 -4 42 -25
78 -45 36 -20 66 -37 68 -38 1 -1 -3 -34 -9 -73 -9 -54 -9 -85 0 -128 21 -105
113 -424 121 -419 5 3 11 23 15 44 5 30 -4 78 -39 204 -25 91 -48 183 -52 205
-13 84 51 235 123 288 33 25 94 57 98 52 13 -15 33 -68 26 -68 -5 0 -30 -20
-54 -45 -59 -59 -81 -123 -74 -214 7 -89 35 -177 50 -162 13 13 14 66 2 157
-10 80 5 125 62 182 42 41 45 43 58 26 13 -18 14 -17 25 7 10 22 7 34 -18 85
-17 32 -36 86 -42 119 -29 149 52 317 192 399 49 28 178 60 208 51 24 -8 57
40 34 49 -11 4 -13 15 -8 43 17 96 73 162 161 190 37 12 61 27 76 47 l21 29
-35 -6 c-165 -33 -253 -113 -273 -249 -7 -47 -18 -58 -61 -58 -30 0 -40 47
-24 121 21 101 75 178 157 226 25 15 120 48 211 74 148 41 167 49 189 77 16
22 20 32 11 31 -8 0 -97 -24 -199 -53z m-595 -306 c66 -32 122 -84 154 -145
l21 -40 -27 -12 c-41 -18 -45 -16 -74 25 -32 47 -110 90 -180 98 -45 5 -79 -1
-203 -35 -82 -22 -151 -42 -153 -45 -6 -5 61 -253 80 -299 34 -79 119 -143
205 -154 46 -5 51 -8 56 -36 12 -61 13 -60 -72 -55 -125 7 -230 75 -285 184
-17 33 -128 426 -123 432 4 4 381 108 416 115 48 9 126 -5 185 -33z"/>
        <path d="M16190 14473 c1 -19 31 -45 81 -71 92 -48 148 -150 133 -244 -4 -22
-1 -46 9 -64 l15 -29 13 30 c20 51 15 153 -11 213 -30 69 -105 137 -173 157
-57 17 -67 18 -67 8z"/>
        <path d="M4910 14319 c-59 -26 -106 -72 -138 -134 -21 -41 -26 -64 -26 -125 0
-41 6 -88 13 -105 l13 -30 14 25 c9 17 12 40 8 71 -12 99 40 198 130 245 62
32 92 74 53 74 -12 0 -42 -10 -67 -21z"/>
        <path d="M16810 13158 c0 -36 49 -82 192 -180 85 -59 167 -123 182 -142 67
-89 91 -201 62 -297 -23 -79 -28 -84 -62 -66 -28 15 -28 16 -29 109 0 87 -2
98 -30 144 -30 47 -155 153 -183 154 -17 0 13 -71 35 -84 38 -21 98 -84 114
-121 30 -66 23 -165 -12 -165 -19 0 -25 -16 -11 -36 4 -6 37 -24 74 -41 124
-58 204 -161 229 -295 20 -112 -30 -258 -116 -337 -49 -45 -62 -91 -27 -91 30
0 72 -87 72 -149 0 -48 -30 -133 -51 -147 -5 -3 -9 -26 -9 -52 l1 -47 25 30
c13 17 38 57 54 89 24 48 30 72 30 125 0 65 -23 135 -55 171 -11 13 -9 20 14
48 l28 33 32 -36 c80 -91 109 -210 77 -318 -10 -33 -43 -96 -83 -154 -37 -54
-82 -120 -100 -147 -25 -36 -33 -59 -33 -90 l1 -41 27 34 c15 19 71 98 124
177 98 144 128 211 128 284 l0 36 91 16 c50 9 93 18 95 21 2 2 -3 38 -11 81
-8 43 -15 84 -15 92 0 7 21 25 48 38 69 36 116 90 256 296 100 146 124 186
114 196 -40 37 -382 262 -428 281 -30 12 -76 23 -101 23 l-47 0 -18 95 c-20
107 -13 102 -114 80 -36 -8 -70 -14 -77 -15 -6 0 -24 24 -41 53 -40 70 -89
114 -272 238 -188 128 -180 123 -180 107z m848 -637 c33 -17 191 -122 369
-245 1 -1 -53 -83 -121 -181 -133 -195 -182 -244 -270 -270 -65 -19 -151 -19
-209 1 -57 19 -62 26 -43 62 15 29 15 29 70 19 74 -14 153 4 209 47 24 18 79
86 128 156 80 115 85 126 70 141 -36 36 -244 169 -279 179 -77 21 -165 9 -224
-32 -33 -23 -37 -22 -72 7 l-30 24 34 31 c34 31 93 66 140 81 48 16 182 4 228
-20z"/>
        <path d="M4205 12867 c-168 -120 -220 -168 -256 -239 -12 -24 -22 -44 -23 -45
-1 -2 -40 4 -87 12 -46 8 -87 15 -91 15 -7 0 -12 -19 -29 -121 l-11 -66 -53
-6 c-29 -3 -75 -15 -100 -26 -75 -33 -426 -284 -422 -301 7 -30 280 -401 316
-429 29 -23 73 -48 118 -66 2 -1 -4 -41 -13 -88 -8 -48 -13 -91 -10 -96 3 -4
45 -14 94 -21 l89 -13 6 -56 c3 -31 14 -76 25 -101 19 -43 267 -400 278 -400
3 0 2 21 -2 48 -5 38 -26 74 -111 195 -128 180 -147 224 -141 327 5 81 26 134
81 203 l30 38 27 -26 28 -27 -29 -55 c-24 -45 -29 -67 -29 -124 0 -82 13 -116
77 -206 l48 -68 3 43 c3 34 -2 51 -23 78 -60 78 -72 167 -32 244 17 35 27 44
45 43 17 -2 22 2 22 22 0 16 -17 40 -53 74 -62 59 -104 137 -119 222 -28 162
70 339 227 410 54 24 65 33 65 53 0 13 -6 26 -14 29 -22 9 -30 90 -15 145 9
35 27 61 71 103 52 51 86 104 74 117 -10 10 -133 -88 -159 -126 -45 -69 -59
-174 -32 -244 5 -13 -2 -22 -30 -35 -43 -20 -46 -17 -70 61 -19 63 -19 119 0
183 27 91 69 138 225 251 102 73 148 113 157 134 8 18 12 35 11 40 -2 5 -75
-43 -163 -105z m-353 -530 c29 -14 67 -40 82 -56 l29 -31 -26 -24 -27 -25 -36
24 c-68 46 -156 57 -234 30 -34 -12 -242 -148 -283 -185 -9 -8 124 -203 177
-258 62 -67 172 -98 259 -74 37 10 38 10 57 -28 l20 -39 -56 -20 c-110 -42
-245 -20 -331 54 -51 43 -288 374 -277 385 23 21 323 229 354 245 58 30 82 35
161 31 58 -2 90 -9 131 -29z"/>
        <path d="M17110 12318 c0 -14 17 -42 45 -71 32 -34 50 -64 61 -105 16 -54 16
-61 0 -117 -22 -73 -31 -145 -20 -145 18 0 65 89 75 144 21 102 -20 218 -101
283 -44 36 -60 39 -60 11z"/>
        <path d="M4043 12114 c-48 -48 -65 -72 -77 -114 -28 -94 -15 -181 40 -263 l28
-42 9 31 c7 24 4 40 -12 72 -48 94 -34 192 40 276 30 34 40 53 37 73 -3 28 -4
27 -65 -33z"/>
        <path d="M17250 10820 c0 -35 13 -59 100 -181 55 -77 109 -157 119 -177 57
-113 38 -264 -45 -361 l-37 -42 -28 27 c-28 27 -28 27 -10 53 41 60 56 137 40
210 -11 53 -100 201 -121 201 -19 0 1 -77 33 -128 17 -27 34 -67 39 -88 18
-77 -28 -192 -71 -179 -15 5 -19 1 -19 -17 0 -16 22 -46 64 -89 69 -71 101
-137 112 -233 18 -153 -72 -308 -222 -382 -76 -38 -93 -63 -59 -88 21 -16 29
-93 15 -146 -9 -34 -26 -59 -69 -100 -50 -48 -94 -120 -72 -120 4 0 35 20 69
45 97 71 138 151 130 254 -3 31 -9 64 -13 73 -5 13 1 21 30 35 43 21 46 17 71
-66 29 -97 1 -225 -68 -306 -14 -17 -87 -73 -161 -125 -106 -74 -139 -103
-153 -133 -9 -20 -15 -39 -12 -42 7 -7 297 200 345 247 22 22 53 63 69 92 15
28 27 52 28 53 1 0 35 -5 76 -12 41 -8 83 -14 92 -14 17 -1 19 5 39 122 l11
67 42 0 c22 1 64 8 91 18 53 18 445 288 445 307 -1 18 -269 389 -305 421 -27
24 -119 79 -132 79 0 0 5 38 13 84 9 46 13 89 10 96 -2 6 -45 18 -95 25 l-91
13 0 46 c-1 73 -37 143 -168 329 -68 94 -125 172 -128 172 -2 0 -4 -18 -4 -40z
m453 -780 c81 -30 124 -75 256 -260 67 -94 121 -172 121 -175 0 -12 -350 -251
-392 -267 -104 -39 -242 -15 -327 58 l-42 37 26 27 27 28 35 -24 c72 -48 190
-57 264 -19 37 20 259 174 259 181 0 13 -174 246 -204 272 -61 54 -183 76
-258 47 -13 -5 -21 2 -33 31 -18 43 -16 47 45 68 64 22 158 20 223 -4z"/>
        <path d="M3901 10503 c-126 -174 -157 -231 -167 -310 -3 -29 -9 -53 -13 -53
-13 0 -174 -30 -177 -33 -2 -1 3 -43 11 -92 8 -49 14 -90 12 -91 -1 -1 -25
-13 -53 -27 -29 -15 -67 -41 -86 -59 -34 -33 -294 -385 -300 -406 -4 -14 348
-273 411 -303 24 -11 70 -25 102 -31 65 -11 62 -7 79 -119 l12 -76 82 13 c109
18 103 20 127 -30 11 -24 35 -62 54 -83 35 -41 382 -299 391 -290 3 2 -3 21
-13 42 -14 29 -51 62 -156 138 -157 113 -197 151 -227 212 -47 98 -49 186 -6
290 l15 35 35 -17 c31 -14 35 -20 28 -42 -4 -14 -7 -55 -7 -91 1 -94 37 -156
133 -228 40 -30 75 -52 78 -49 13 12 -18 75 -42 88 -40 21 -99 93 -112 137
-22 73 -7 154 27 145 15 -4 18 0 14 21 -4 19 -20 32 -68 54 -257 121 -312 434
-111 635 54 54 64 90 27 100 -10 2 -28 25 -41 51 -32 67 -26 145 19 214 25 39
32 59 29 89 l-3 38 -43 -58 c-24 -32 -51 -79 -59 -103 -26 -77 -9 -190 39
-256 11 -15 9 -22 -14 -45 l-28 -27 -30 29 c-85 81 -112 244 -59 355 15 30 67
111 118 180 81 111 91 129 91 167 0 24 -1 43 -2 43 -2 0 -54 -71 -117 -157z
m-115 -628 c74 -23 79 -28 65 -63 l-13 -30 -78 5 c-98 7 -156 -8 -208 -53 -43
-36 -194 -239 -196 -262 -1 -18 180 -154 249 -188 83 -40 219 -30 275 21 13
12 19 10 47 -15 l31 -28 -31 -30 c-18 -17 -59 -43 -92 -58 -73 -34 -164 -38
-240 -11 -64 22 -398 264 -391 283 7 18 214 303 245 337 80 88 222 127 337 92z"/>
        <path d="M17237 9960 c-5 -21 0 -43 16 -73 16 -31 22 -59 22 -107 -1 -72 -17
-112 -71 -173 -40 -44 -48 -95 -13 -77 42 23 99 93 120 148 29 78 23 169 -16
241 -39 70 -51 79 -58 41z"/>
        <path d="M4000 9771 c-88 -125 -56 -316 68 -405 l37 -26 3 25 c3 19 -7 38 -36
69 -73 80 -92 196 -45 279 18 32 20 87 3 87 -5 0 -18 -13 -30 -29z"/>
        <path d="M16906 8592 c-3 -5 -8 -27 -12 -49 -5 -31 4 -74 42 -199 74 -245 67
-344 -32 -454 -22 -24 -59 -56 -84 -72 l-44 -28 -18 32 c-22 43 -23 41 11 61
42 24 88 100 102 165 10 48 8 67 -11 149 -13 52 -27 96 -31 98 -4 3 -13 -11
-19 -30 -9 -28 -9 -48 4 -99 18 -68 14 -110 -15 -167 -26 -53 -99 -111 -99
-79 0 18 -17 11 -27 -12 -7 -17 -2 -36 26 -91 34 -66 36 -74 36 -171 0 -94 -2
-106 -32 -167 -62 -125 -181 -207 -315 -217 -55 -4 -71 -9 -79 -25 -8 -14 -8
-22 1 -27 19 -12 4 -86 -26 -138 -26 -44 -103 -102 -136 -102 -22 0 -82 -53
-77 -67 3 -7 34 -1 87 16 127 42 194 118 208 235 l7 56 37 0 c55 0 65 -46 34
-150 -20 -68 -50 -115 -104 -164 -52 -47 -78 -58 -265 -112 -125 -36 -154 -48
-172 -71 -13 -15 -19 -29 -14 -31 5 -2 96 22 203 53 192 56 256 85 308 140 13
14 27 25 31 25 4 0 39 -18 78 -40 39 -22 75 -40 80 -40 6 0 29 36 53 80 42 78
44 80 73 73 17 -5 64 -8 105 -8 62 0 113 11 298 64 158 46 222 68 222 78 0 8
-29 117 -65 241 -66 227 -93 288 -150 342 -14 13 -25 27 -25 31 0 4 18 39 40
78 22 39 40 75 40 80 0 6 -36 29 -80 53 -68 36 -80 46 -75 63 4 11 9 52 12 91
5 65 0 88 -57 290 -34 120 -64 220 -65 222 -2 2 -6 -1 -9 -6z m77 -871 c56
-24 130 -90 162 -145 24 -43 140 -435 131 -444 -3 -2 -99 -32 -213 -64 -239
-68 -290 -72 -387 -24 -56 27 -133 101 -159 153 -16 30 -16 30 17 46 l33 15
36 -43 c51 -60 125 -95 201 -95 55 0 315 66 333 84 3 3 -13 72 -36 153 -50
176 -81 226 -162 267 -29 14 -74 29 -101 32 -48 7 -48 7 -48 44 0 21 6 41 13
44 24 11 133 -3 180 -23z"/>
        <path d="M4351 8220 c-49 -182 -53 -206 -49 -277 3 -43 9 -85 12 -94 6 -13 -9
-26 -68 -59 -42 -22 -78 -46 -82 -51 -3 -5 14 -45 39 -89 l45 -78 -33 -32
c-18 -18 -44 -53 -58 -78 -23 -42 -147 -467 -147 -503 0 -10 66 -32 234 -78
219 -59 240 -63 313 -59 43 3 85 8 94 12 11 5 26 -13 60 -74 24 -44 49 -80 54
-80 6 0 44 20 85 44 l75 44 43 -40 c24 -22 67 -50 95 -63 65 -29 435 -130 444
-121 4 4 -4 18 -18 32 -19 19 -67 36 -200 73 -96 26 -193 58 -217 70 -97 49
-168 159 -178 271 -3 36 -1 70 3 76 4 6 25 9 46 6 34 -4 37 -7 37 -34 0 -78
62 -178 134 -215 42 -22 186 -63 186 -52 0 20 -50 59 -95 73 -71 23 -110 49
-141 95 -32 50 -45 131 -20 131 19 0 20 11 4 32 -9 11 -37 18 -87 21 -140 11
-258 93 -323 225 -30 61 -33 74 -33 162 0 87 3 101 33 163 32 65 36 114 9 104
-18 -6 -63 19 -87 50 -48 61 -62 137 -40 213 9 33 -4 100 -20 100 -12 0 -40
-120 -40 -171 0 -85 18 -128 82 -192 l57 -57 -15 -35 -14 -35 -41 20 c-99 51
-169 160 -176 275 -4 60 1 93 40 232 40 144 44 166 34 202 -6 23 -14 41 -17
41 -3 0 -29 -90 -59 -200z m175 -616 c27 -5 29 -8 26 -45 -4 -38 -5 -39 -46
-39 -75 -1 -161 -53 -206 -125 -17 -27 -105 -324 -98 -330 2 -2 64 -20 138
-41 169 -47 233 -49 314 -10 46 23 81 55 112 104 7 11 74 -24 74 -39 0 -48
-113 -158 -194 -188 -88 -33 -141 -28 -368 35 -111 30 -204 57 -206 59 -5 5
97 375 116 420 37 88 147 175 246 195 55 11 59 11 92 4z"/>
        <path d="M16601 7753 c-5 -11 -9 -51 -9 -89 1 -50 -4 -82 -19 -114 -22 -50
-89 -116 -128 -126 -29 -7 -66 -64 -42 -64 31 0 106 33 140 61 78 64 117 176
97 279 -12 64 -24 80 -39 53z"/>
        <path d="M4711 7599 c-16 -47 -13 -138 6 -195 24 -71 103 -147 176 -170 31
-10 59 -15 63 -12 13 13 -18 48 -59 66 -95 42 -150 131 -146 235 2 52 -11 107
-25 107 -2 0 -9 -14 -15 -31z"/>
        <path d="M15832 6542 c-22 -30 -25 -51 -37 -228 -12 -186 -15 -199 -44 -259
-50 -100 -149 -173 -258 -191 l-43 -7 0 41 c0 40 1 41 50 57 65 22 133 89 154
152 9 27 18 86 22 133 l6 85 -25 -25 c-20 -20 -28 -41 -36 -98 -11 -85 -41
-139 -99 -176 -51 -34 -92 -43 -92 -22 0 19 -16 21 -27 4 -4 -7 -8 -65 -8
-128 0 -104 -3 -121 -27 -172 -88 -187 -306 -279 -493 -208 -28 11 -72 -15
-56 -33 15 -19 -11 -67 -58 -110 -54 -49 -82 -59 -156 -58 -50 0 -66 -4 -90
-24 l-30 -24 60 -2 c96 -4 137 1 187 23 54 23 110 80 133 134 12 30 19 35 37
30 13 -3 31 -6 42 -6 15 0 17 -5 12 -27 -25 -104 -114 -206 -212 -242 -59 -22
-143 -25 -334 -12 -83 6 -100 4 -135 -13 l-40 -20 55 -8 c30 -5 143 -9 250
-11 185 -2 198 -1 245 21 l50 23 24 -28 c13 -15 41 -48 62 -72 l38 -43 69 61
c38 34 72 61 76 61 3 0 23 -11 44 -24 60 -40 143 -55 382 -70 124 -7 227 -12
229 -10 8 7 32 432 28 494 -2 37 -14 88 -27 119 l-24 53 67 60 c37 33 67 63
67 67 0 4 -27 38 -59 76 l-60 69 19 24 c46 57 61 129 76 347 18 255 17 262
-14 217z m-286 -763 c90 -42 172 -146 189 -242 4 -21 2 -135 -5 -253 l-13
-214 -56 0 c-31 1 -133 7 -228 14 -151 12 -179 16 -227 40 -80 39 -150 120
-176 203 -22 71 -25 93 -11 93 5 0 22 3 38 6 27 5 30 3 42 -37 26 -86 88 -150
171 -177 31 -10 330 -36 335 -30 2 2 7 69 13 149 11 154 7 201 -23 262 -20 43
-97 115 -132 123 -25 7 -27 14 -17 63 6 27 10 30 33 25 14 -3 44 -15 67 -25z"/>
        <path d="M5575 6408 c3 -24 10 -116 15 -204 11 -175 24 -234 65 -296 l26 -40
-62 -70 -63 -71 71 -66 72 -66 -20 -38 c-37 -71 -41 -126 -23 -382 8 -132 17
-241 19 -243 1 -2 112 4 246 13 254 17 315 29 379 75 l31 22 55 -49 c96 -83
83 -83 153 -4 l62 70 44 -20 c81 -36 128 -39 359 -23 121 8 222 16 224 19 2 2
-12 12 -32 22 -34 17 -47 18 -219 7 -112 -8 -200 -9 -229 -3 -103 19 -190 85
-238 181 -35 72 -39 108 -11 108 11 0 26 3 35 6 10 4 19 -5 29 -28 21 -49 73
-106 121 -130 46 -24 156 -35 232 -23 l47 7 -29 19 c-21 14 -47 19 -99 19
-104 1 -180 43 -222 124 -14 27 -14 31 1 41 14 11 14 14 -4 30 -18 16 -21 16
-67 -1 -69 -27 -190 -24 -268 6 -84 32 -183 132 -215 215 -27 73 -36 166 -21
220 9 35 8 42 -9 60 -15 15 -23 17 -28 8 -11 -18 -72 3 -117 40 -46 37 -75 96
-82 163 -4 39 -12 59 -31 76 l-24 23 4 -82 c6 -110 42 -184 112 -230 26 -18
64 -37 85 -43 36 -9 36 -11 33 -51 l-4 -41 -47 6 c-109 15 -220 105 -260 211
-15 40 -24 100 -32 222 -9 135 -15 174 -31 201 -27 44 -39 40 -33 -10z m415
-722 c7 -34 6 -36 -28 -47 -58 -19 -128 -97 -148 -164 -14 -50 -15 -77 -6
-212 6 -85 12 -156 14 -157 1 -2 75 2 164 9 134 10 168 15 208 36 61 30 113
90 130 149 7 25 18 45 25 44 6 -1 25 -2 41 -2 36 -2 39 -25 14 -99 -35 -103
-123 -190 -218 -218 -44 -13 -455 -48 -464 -40 -2 2 -10 98 -18 214 -15 229
-12 266 30 349 22 42 68 94 117 130 19 14 122 52 127 47 2 -2 7 -19 12 -39z"/>
        <path d="M15267 5872 c-10 -10 -17 -28 -17 -41 0 -35 -28 -93 -63 -129 -42
-44 -92 -69 -155 -78 -30 -4 -58 -14 -68 -25 -15 -17 -14 -18 19 -24 50 -10
137 11 189 44 80 51 128 137 128 227 0 48 -8 54 -33 26z"/>
        <path d="M6133 5754 c8 -101 59 -180 146 -228 54 -29 139 -44 187 -32 l29 8
-25 19 c-14 10 -41 19 -60 19 -90 1 -198 89 -221 181 -7 27 -24 59 -37 72
l-25 22 6 -61z"/>
        <path d="M14034 4957 c-24 -16 -51 -61 -110 -181 -88 -178 -137 -242 -219
-284 -59 -30 -181 -42 -237 -23 -35 11 -35 12 -25 49 l10 37 53 -3 c66 -5 137
18 186 58 34 28 139 210 121 210 -25 0 -76 -46 -97 -87 -44 -87 -113 -133
-202 -133 -37 0 -47 4 -51 20 -6 23 -8 23 -32 10 -10 -5 -21 -26 -25 -47 -17
-103 -108 -224 -207 -274 -139 -69 -308 -49 -422 51 -29 25 -43 31 -63 26 -17
-5 -24 -12 -20 -21 7 -19 -55 -69 -103 -84 -56 -16 -110 -13 -160 9 -46 21
-106 26 -116 10 -4 -6 24 -24 62 -42 123 -58 239 -48 323 28 l36 33 32 -22
c17 -12 32 -25 32 -28 0 -21 -81 -93 -138 -121 -59 -29 -76 -33 -148 -33 l-81
0 -169 82 c-157 76 -172 82 -209 74 l-40 -8 197 -98 c196 -98 198 -99 282
-103 l85 -4 27 -82 c15 -44 28 -84 31 -88 2 -4 43 7 91 23 l87 30 15 -23 c53
-81 92 -108 321 -223 126 -63 230 -115 231 -115 2 0 55 103 117 228 113 227
113 229 118 315 l6 86 81 27 c44 15 84 28 88 31 4 2 -7 43 -23 91 l-30 87 23
15 c80 52 109 93 213 301 58 114 105 210 105 214 0 9 -15 4 -46 -18z m-576
-562 c25 -22 54 -63 74 -103 29 -59 33 -76 33 -148 l0 -82 -102 -206 -103
-206 -192 96 c-210 104 -261 143 -305 229 -31 59 -43 180 -24 238 12 34 13 35
45 25 l34 -11 4 -82 c5 -93 33 -155 91 -199 35 -26 270 -146 287 -146 6 0 43
65 82 145 66 134 72 151 72 208 -1 69 -28 145 -69 187 l-25 26 23 32 c12 17
25 32 28 32 3 0 24 -16 47 -35z"/>
        <path d="M7390 4922 c0 -21 173 -378 199 -411 17 -21 48 -50 70 -65 l39 -27
-29 -80 c-16 -44 -29 -85 -29 -92 0 -7 38 -26 85 -42 l85 -29 0 -77 c0 -42 5
-91 12 -110 11 -33 196 -440 203 -447 2 -2 104 43 227 99 214 99 226 106 290
171 l68 68 81 -30 c45 -17 85 -28 88 -25 3 4 20 43 37 88 l31 81 54 -3 c30 -1
76 3 103 9 45 10 411 172 429 190 5 4 -9 11 -31 15 -36 6 -58 -2 -204 -69 -89
-41 -185 -80 -211 -87 -103 -25 -236 19 -313 104 -24 27 -44 52 -44 56 0 4 14
15 30 25 l31 18 36 -32 c53 -47 99 -63 178 -64 61 0 81 5 153 39 75 35 81 40
60 48 -29 11 -67 5 -143 -23 -53 -20 -66 -21 -110 -11 -71 17 -127 57 -123 90
5 41 -32 39 -88 -3 -85 -65 -200 -95 -297 -77 -160 29 -300 167 -323 318 -4
31 -12 44 -27 49 -12 4 -23 2 -25 -5 -2 -6 -27 -11 -59 -11 -93 0 -170 55
-213 151 -11 24 -47 49 -70 49 -5 0 3 -27 17 -60 55 -127 142 -190 263 -190
l66 0 10 -39 11 -39 -43 -11 c-59 -15 -101 -14 -164 5 -123 36 -173 92 -265
292 -38 81 -72 152 -76 157 -12 16 -69 47 -69 37z m649 -619 c-53 -61 -73
-111 -73 -188 -1 -65 3 -79 64 -212 36 -79 70 -143 77 -143 21 0 288 131 311
153 49 45 75 105 80 182 4 66 7 74 27 79 13 3 30 9 38 12 12 4 19 -5 28 -38
26 -98 -13 -231 -93 -310 -34 -34 -86 -63 -242 -136 -110 -51 -203 -89 -207
-85 -4 4 -47 94 -95 198 l-88 190 -1 95 c0 85 3 100 27 145 35 64 55 88 98
120 l35 26 22 -27 22 -28 -30 -33z"/>
        <path d="M13207 4506 c-52 -54 -72 -67 -121 -81 -54 -16 -64 -16 -115 -2 -55
15 -111 13 -111 -4 0 -14 57 -39 116 -50 111 -21 228 29 292 125 64 96 29 104
-61 12z"/>
        <path d="M8140 4514 c0 -25 66 -118 102 -144 47 -34 124 -60 178 -60 46 0 134
26 149 44 20 24 -35 36 -84 19 -96 -35 -226 21 -282 121 -9 16 -63 33 -63 20z"/>
        <path d="M11747 4202 c-9 -4 -79 -69 -156 -145 -169 -167 -212 -192 -336 -192
-67 0 -89 5 -137 28 -75 37 -81 46 -54 80 22 27 23 27 59 12 21 -8 66 -15 104
-15 90 0 150 29 228 110 l60 62 -44 -5 c-33 -4 -54 -15 -85 -45 -22 -22 -55
-47 -73 -56 -64 -32 -212 -11 -197 29 5 11 -1 15 -22 15 -24 -1 -35 -10 -62
-56 -92 -151 -296 -219 -465 -155 -65 26 -162 108 -192 165 -22 41 -56 48 -83
17 -19 -21 -72 -41 -111 -41 -49 0 -100 21 -151 61 -31 25 -66 42 -88 46 l-37
5 66 -65 c81 -78 140 -102 230 -94 32 3 73 12 91 22 32 16 33 16 56 -11 13
-14 21 -31 19 -38 -2 -6 -28 -24 -58 -41 -49 -27 -62 -30 -149 -30 -131 0
-162 17 -320 171 -95 93 -134 125 -164 133 -22 6 -42 8 -45 5 -3 -4 64 -73
149 -155 153 -146 211 -187 288 -204 l32 -7 0 -94 0 -94 93 0 93 0 17 -53 c26
-82 63 -129 242 -307 l165 -165 161 160 c170 169 229 245 248 320 l11 45 95 0
95 0 0 98 0 98 48 13 c78 20 120 52 287 220 132 133 155 161 135 160 -14 0
-33 -4 -43 -7z m-1288 -386 c-26 -57 -25 -167 2 -226 13 -30 57 -81 131 -152
62 -60 115 -108 118 -108 18 0 223 224 240 262 25 55 27 161 4 219 l-17 41 29
24 c16 13 31 23 34 24 9 0 52 -72 66 -112 21 -60 18 -157 -7 -225 -19 -51 -43
-79 -185 -223 l-163 -165 -156 155 c-183 181 -206 217 -213 332 -5 83 11 146
50 204 l22 32 32 -21 31 -21 -18 -40z"/>
        <path d="M10855 4045 c-34 -28 -105 -55 -144 -55 -41 0 -96 18 -135 45 -39 26
-101 35 -94 13 8 -24 89 -78 140 -93 102 -30 196 -10 272 56 25 22 46 45 46
50 0 18 -56 8 -85 -16z"/>
    </g>
</svg>
