<?xml version="1.0" standalone="no"?>
<!DOCTYPE svg PUBLIC "-//W3C//DTD SVG 20010904//EN"
        "http://www.w3.org/TR/2001/REC-SVG-20010904/DTD/svg10.dtd">
<svg version="1.0" xmlns="http://www.w3.org/2000/svg"
     width="512px" height="512px" viewBox="0 0 2109.000000 2109.000000"
     preserveAspectRatio="xMidYMid meet">
    <metadata>
        Created by potrace 1.16, written by Peter Selinger 2001-2019
    </metadata>
    <g transform="translate(0.000000,2109.000000) scale(0.100000,-0.100000)"
       fill="#000000" stroke="none">
        <path d="M6126 17031 c-62 -25 -91 -53 -180 -171 -606 -799 -994 -1778 -1110
-2795 -41 -359 -46 -900 -11 -1230 113 -1074 499 -2069 1131 -2912 123 -164
164 -204 233 -228 180 -61 369 55 388 240 10 98 -9 142 -129 303 -838 1117
-1199 2459 -1028 3822 111 886 444 1710 991 2451 84 113 103 149 113 214 18
107 -45 234 -143 288 -71 40 -180 48 -255 18z"/>
        <path d="M14834 17034 c-94 -33 -172 -138 -181 -243 -9 -92 14 -149 113 -281
543 -730 881 -1569 993 -2470 167 -1338 -197 -2693 -1015 -3781 -133 -177
-148 -208 -142 -308 5 -86 22 -127 77 -184 54 -58 104 -80 194 -85 72 -4 82
-2 142 27 57 28 75 45 145 134 509 650 893 1463 1076 2279 370 1661 11 3371
-994 4724 -96 129 -133 165 -201 189 -54 19 -153 18 -207 -1z"/>
        <path d="M7610 16039 c-76 -15 -164 -65 -217 -123 -59 -64 -192 -254 -287
-408 -306 -499 -501 -1075 -568 -1683 -20 -186 -17 -714 5 -890 69 -535 222
-1021 458 -1459 175 -324 413 -658 516 -724 269 -173 615 0 631 313 7 138 -16
193 -173 399 -217 287 -398 644 -505 997 -243 806 -160 1694 229 2434 76 145
153 268 264 423 116 162 131 199 131 322 0 124 -24 187 -102 271 -64 69 -140
112 -227 128 -67 12 -91 12 -155 0z"/>
        <path d="M13407 16040 c-177 -31 -314 -189 -325 -372 -7 -116 16 -189 90 -291
363 -499 557 -962 644 -1537 21 -144 30 -572 15 -737 -58 -621 -278 -1181
-662 -1684 -99 -130 -127 -184 -139 -270 -47 -328 293 -570 589 -419 71 36
135 102 251 260 770 1047 993 2420 593 3665 -131 409 -355 838 -618 1186 -108
141 -188 191 -332 203 -32 2 -80 1 -106 -4z"/>
        <path d="M10482 14703 c-154 -97 -298 -219 -503 -423 -214 -214 -325 -346
-460 -548 -210 -316 -319 -605 -319 -847 0 -367 190 -690 545 -927 246 -164
742 -353 875 -333 73 11 272 71 397 120 589 230 924 606 959 1076 24 339 -170
767 -560 1229 -103 123 -334 352 -459 455 -151 126 -342 255 -375 255 -5 0
-50 -26 -100 -57z m189 -151 c365 -239 784 -714 989 -1122 103 -206 142 -346
142 -515 1 -376 -238 -704 -669 -917 -77 -38 -93 -43 -177 -46 -167 -7 -335
40 -409 116 -70 71 -81 145 -35 219 11 18 77 79 146 136 144 118 226 201 264
267 77 132 95 335 44 484 -36 105 -68 157 -149 242 -45 49 -90 84 -137 108
-72 38 -109 77 -129 135 -15 47 -14 120 3 154 13 24 13 27 0 27 -9 0 -25 -5
-36 -11 -20 -11 -21 -10 -15 42 7 73 40 162 82 226 29 44 39 52 58 48 32 -7
47 6 57 51 19 81 -26 260 -81 327 -17 21 -33 36 -35 34 -2 -2 6 -28 18 -58 17
-41 22 -76 22 -149 1 -111 -14 -148 -108 -265 -102 -127 -157 -269 -160 -412
-1 -75 -7 -84 -37 -57 -16 15 -18 13 -23 -28 -20 -166 -17 -205 15 -188 15 8
34 0 99 -44 l80 -54 -70 -36 c-77 -41 -109 -43 -126 -8 -10 20 -12 21 -18 7
-10 -27 -7 -95 5 -118 7 -12 12 -52 13 -89 l1 -68 76 -77 c43 -43 84 -92 93
-110 18 -36 21 -89 6 -128 -20 -52 14 -20 48 44 58 113 37 222 -38 194 -27
-10 -32 -9 -49 16 -30 42 -34 72 -12 107 38 62 169 96 237 61 83 -43 123 -161
93 -271 -17 -61 -99 -139 -257 -243 -153 -101 -203 -151 -251 -253 -23 -48
-26 -68 -26 -155 0 -121 20 -171 101 -252 29 -29 49 -53 44 -53 -20 0 -241 90
-326 133 -288 145 -513 368 -602 597 -45 115 -56 180 -56 315 1 143 18 229 75
373 155 390 549 885 942 1185 78 59 184 127 198 127 3 0 40 -22 80 -48z"/>
        <path d="M8875 12096 c-65 -21 -116 -50 -190 -111 -81 -67 -113 -82 -187 -91
-41 -5 -66 -1 -107 15 -30 11 -57 18 -60 15 -3 -3 25 -35 63 -70 208 -194 406
-237 545 -118 39 34 67 71 59 80 -2 2 -28 -5 -56 -16 -54 -21 -117 -26 -126
-12 -8 14 58 105 98 135 74 57 144 71 212 42 20 -8 76 -53 125 -99 107 -102
193 -165 285 -208 57 -27 84 -33 158 -36 98 -5 115 11 22 21 -120 12 -261 115
-385 281 -77 103 -106 128 -190 162 -65 27 -197 32 -266 10z"/>
        <path d="M12050 12094 c-67 -24 -119 -62 -167 -124 -123 -154 -147 -182 -205
-225 -79 -60 -158 -97 -220 -103 -27 -3 -51 -9 -55 -15 -4 -6 25 -8 83 -5 77
3 99 9 164 40 94 46 162 97 267 199 115 112 191 141 278 105 42 -18 127 -96
154 -142 18 -30 19 -35 5 -41 -22 -8 -100 4 -135 22 -17 9 -35 15 -41 13 -17
-6 60 -86 111 -116 40 -24 57 -27 132 -27 81 0 90 2 172 43 61 30 108 64 166
118 45 42 81 79 81 83 0 5 -26 -1 -57 -12 -102 -34 -192 -9 -298 82 -33 29
-89 66 -125 84 -57 27 -77 31 -165 34 -73 2 -112 -1 -145 -13z"/>
        <path d="M6020 8659 c-294 -77 -519 -307 -590 -602 -19 -80 -20 -124 -20
-1672 0 -1548 1 -1592 20 -1672 36 -150 107 -278 216 -387 110 -110 274 -199
418 -225 43 -8 1344 -11 4528 -11 4071 0 4475 1 4540 16 299 68 529 290 615
594 17 62 18 143 18 1685 l0 1620 -23 78 c-84 291 -309 509 -596 577 -80 20
-157 20 -4566 19 -4420 0 -4486 0 -4560 -20z m9046 -184 c215 -41 399 -202
476 -415 l23 -65 3 -1583 c3 -1741 6 -1643 -59 -1776 -79 -161 -216 -276 -402
-335 -48 -14 -426 -16 -4482 -19 -3890 -2 -4440 0 -4510 13 -231 43 -426 224
-492 455 -17 62 -18 142 -18 1635 0 1493 1 1573 18 1635 66 233 270 421 498
459 31 5 1930 9 4461 10 3862 1 4416 -1 4484 -14z"/>
        <path d="M6630 6386 l0 -1496 886 0 886 0 -4 158 c-3 147 -5 160 -30 207 -32
62 -103 129 -166 158 -46 21 -59 22 -529 25 l-482 3 -3 1037 -3 1037 -23 60
c-32 86 -88 162 -155 211 -85 63 -153 86 -274 92 l-103 5 0 -1497z"/>
        <path d="M8930 6592 c0 -1408 -3 -1345 58 -1455 36 -68 127 -156 193 -189 74
-37 160 -58 241 -58 l68 0 0 1495 0 1495 -280 0 -280 0 0 -1288z"/>
        <path d="M9882 7862 c2 -11 262 -683 578 -1495 l575 -1477 231 0 230 0 572
1478 c315 812 575 1485 578 1495 6 15 -3 17 -103 17 -128 0 -229 -22 -331 -72
-97 -47 -216 -168 -264 -268 -19 -41 -181 -488 -359 -993 -309 -878 -324 -917
-335 -885 -183 525 -673 1887 -692 1923 -42 78 -154 186 -241 229 -96 49 -179
66 -324 66 -109 0 -118 -1 -115 -18z"/>
        <path d="M12940 6385 l0 -1495 805 0 805 0 0 65 c0 136 -40 241 -127 335 -62
68 -163 124 -252 140 -29 6 -193 10 -362 10 l-309 0 0 334 0 334 303 4 c281 4
306 6 361 26 123 46 239 149 291 257 29 62 55 168 55 228 l0 37 -505 0 -505 0
0 334 0 335 393 3 c452 4 449 4 546 94 89 82 105 125 109 307 l4 147 -806 0
-806 0 0 -1495z"/>
    </g>
</svg>
