<?xml version="1.0" standalone="no"?>
<!DOCTYPE svg PUBLIC "-//W3C//DTD SVG 20010904//EN"
        "http://www.w3.org/TR/2001/REC-SVG-20010904/DTD/svg10.dtd">
<svg version="1.0" xmlns="http://www.w3.org/2000/svg"
     width="512px" height="512px" viewBox="0 0 2109.000000 2109.000000"
     preserveAspectRatio="xMidYMid meet">
    <metadata>
        Created by potrace 1.16, written by Peter Selinger 2001-2019
    </metadata>
    <g transform="translate(0.000000,2109.000000) scale(0.100000,-0.100000)"
       fill="#000000" stroke="none">
        <path d="M10370 18279 c-1950 -110 -3741 -912 -5119 -2290 -1676 -1677 -2488
-3946 -2266 -6329 169 -1802 968 -3493 2265 -4790 1488 -1487 3452 -2300 5560
-2300 1862 0 3609 632 5034 1819 204 170 360 318 746 708 639 644 794 827 921
1091 70 144 99 264 99 411 0 125 -9 172 -66 362 -31 103 -36 130 -32 197 7
144 95 274 240 353 l63 34 -46 3 c-92 6 -280 -55 -385 -124 -146 -97 -229
-259 -249 -485 l-7 -77 40 -53 c82 -110 112 -200 112 -334 0 -59 -7 -120 -20
-171 -40 -157 -164 -369 -301 -514 -37 -40 -49 -50 -31 -25 16 22 62 90 102
150 218 331 261 551 153 773 -67 136 -153 212 -409 360 -147 85 -229 170 -303
312 -45 86 -72 172 -73 230 0 22 -4 40 -8 40 -15 0 -118 -218 -130 -276 -18
-85 -8 -234 20 -309 34 -90 87 -163 154 -213 34 -24 142 -84 241 -132 210
-102 275 -153 325 -253 75 -155 36 -320 -127 -534 -204 -269 -524 -636 -742
-853 -584 -580 -1239 -1047 -1982 -1415 -898 -444 -1848 -697 -2874 -765 -198
-13 -728 -13 -935 1 -2233 142 -4249 1237 -5605 3044 -130 173 -340 492 -459
695 -121 206 -364 693 -451 905 -323 782 -507 1573 -565 2433 -13 194 -13 751
0 942 60 883 253 1700 591 2495 84 199 285 602 398 797 1102 1911 2961 3241
5116 3662 710 138 1472 173 2205 100 1727 -171 3349 -942 4585 -2179 1236
-1235 2002 -2846 2179 -4580 16 -157 34 -460 40 -655 2 -63 2 22 0 190 -16
1460 -362 2838 -984 3925 -299 520 -638 955 -1096 1405 -1476 1447 -3440 2240
-5519 2229 -143 -1 -325 -6 -405 -10z"/>
        <path d="M10690 17674 c-763 -441 -1772 -1373 -2492 -2302 -618 -797 -1031
-1581 -1197 -2272 -46 -190 -61 -307 -68 -520 -15 -486 75 -905 287 -1335 335
-681 953 -1251 1839 -1694 486 -244 1084 -456 1604 -571 l148 -33 161 37 c784
182 1551 498 2143 884 1035 675 1575 1579 1575 2636 0 468 -143 976 -444 1576
-564 1123 -1672 2403 -2816 3252 -230 170 -593 399 -630 397 -8 0 -58 -25
-110 -55z m300 -472 c539 -332 1259 -995 1837 -1689 608 -730 1066 -1507 1273
-2158 265 -834 108 -1671 -440 -2355 -312 -388 -810 -764 -1375 -1036 -161
-77 -198 -87 -375 -105 -321 -32 -796 54 -1038 187 -342 188 -460 500 -290
768 54 85 144 171 353 339 439 353 582 484 708 652 118 158 217 388 269 630
19 86 22 133 22 330 1 204 -2 242 -22 339 -26 120 -74 266 -125 377 -149 326
-463 664 -737 791 -47 22 -101 47 -120 56 -54 26 -144 121 -178 188 -16 32
-44 104 -62 159 -57 172 -43 349 35 451 20 26 22 34 11 34 -20 0 -148 -48
-160 -60 -24 -24 -29 -6 -23 93 9 178 58 359 142 533 42 86 135 233 189 298
23 27 24 28 49 11 17 -11 41 -15 73 -13 42 3 51 7 71 37 36 54 47 107 47 231
-2 288 -125 669 -267 823 -19 20 -39 37 -44 37 -6 0 5 -37 23 -82 122 -306
132 -636 25 -872 -42 -92 -101 -179 -240 -354 -158 -200 -201 -261 -255 -363
-141 -266 -235 -722 -196 -954 4 -27 6 -52 4 -54 -2 -2 -20 0 -41 4 -25 4 -50
20 -76 46 -41 44 -40 44 -56 -41 -24 -122 -32 -241 -21 -302 10 -51 9 -63 -4
-77 -19 -21 -21 -103 -5 -150 12 -35 16 -36 42 -16 11 7 36 17 58 20 36 6 45
3 128 -59 126 -92 268 -185 323 -211 l48 -22 -113 -61 c-159 -87 -316 -159
-359 -167 -66 -12 -138 57 -125 121 7 39 -9 28 -28 -18 -23 -58 -30 -166 -16
-225 7 -26 28 -72 47 -101 l35 -52 -17 -82 c-19 -93 -15 -185 12 -263 14 -43
42 -74 195 -225 194 -192 264 -285 299 -397 28 -91 26 -198 -4 -288 -14 -38
-23 -72 -21 -73 6 -6 72 89 113 163 84 151 116 263 110 383 -4 86 -27 144 -66
170 -34 22 -109 19 -162 -8 l-43 -22 -34 38 c-51 59 -91 133 -104 192 -30 145
90 282 313 356 269 91 496 -1 626 -252 92 -176 103 -350 36 -551 -35 -107 -79
-169 -218 -307 -128 -127 -209 -185 -615 -440 -134 -84 -197 -131 -277 -207
-198 -188 -317 -386 -376 -624 -28 -113 -31 -332 -5 -435 62 -251 219 -471
451 -635 49 -35 86 -63 83 -63 -3 0 -77 23 -164 51 -1421 459 -2365 1256
-2652 2241 -72 247 -96 422 -95 693 2 300 37 510 136 815 232 710 739 1533
1434 2327 583 666 1295 1287 1794 1565 l45 25 40 -20 c22 -11 87 -49 145 -85z"/>
        <path d="M6169 10305 c-175 -33 -366 -113 -512 -215 -40 -27 -126 -97 -192
-155 -174 -154 -292 -209 -503 -234 -128 -16 -238 3 -382 64 -44 19 -80 30
-80 26 0 -16 244 -254 330 -324 502 -405 941 -483 1296 -232 98 70 251 242
232 261 -3 3 -29 -6 -57 -21 -156 -79 -342 -113 -439 -81 -29 10 -54 22 -58
27 -15 25 131 214 259 335 248 233 498 270 764 113 34 -20 109 -87 183 -162
211 -217 414 -388 600 -510 187 -121 419 -217 577 -238 93 -12 330 -6 345 9 5
5 -37 12 -94 15 -132 8 -237 36 -368 98 -305 146 -544 361 -813 734 -167 231
-262 317 -452 406 -135 63 -254 90 -420 95 -95 2 -164 -1 -216 -11z"/>
        <path d="M15077 10304 c-152 -27 -313 -94 -432 -179 -88 -64 -171 -153 -280
-305 -219 -303 -400 -486 -625 -632 -203 -132 -369 -193 -557 -205 -57 -3
-103 -9 -103 -13 0 -19 239 -25 358 -10 216 28 523 182 788 395 126 101 308
269 377 348 176 201 380 289 587 253 108 -19 221 -74 315 -153 119 -100 322
-345 312 -377 -6 -18 -99 -45 -157 -45 -91 -1 -228 37 -341 95 -28 14 -55 24
-61 22 -17 -6 74 -119 162 -201 66 -62 103 -88 184 -126 115 -56 166 -70 281
-78 263 -19 575 109 890 364 109 89 353 329 343 338 -3 4 -28 -5 -55 -19 -124
-63 -273 -91 -402 -76 -227 26 -336 79 -541 264 -307 277 -694 403 -1043 340z"/>
        <path d="M17712 8786 c-25 -123 -83 -199 -187 -248 -53 -24 -81 -30 -199 -38
-220 -16 -346 -49 -457 -121 -68 -43 -136 -122 -156 -180 -10 -27 -22 -48 -28
-46 -15 5 -18 54 -6 88 16 47 -5 34 -53 -35 -112 -156 -167 -308 -173 -481 -6
-136 7 -205 57 -312 77 -167 186 -277 395 -398 55 -32 117 -71 138 -87 l37
-30 0 55 c0 29 7 75 14 102 15 48 15 48 -12 69 -104 81 -208 206 -258 309 -67
141 -67 254 1 393 43 87 168 223 173 188 2 -13 -9 -35 -28 -55 -153 -164 -181
-358 -80 -547 74 -140 260 -319 260 -250 0 5 10 23 21 40 l22 30 -34 26 c-54
41 -145 135 -174 182 -84 133 -86 286 -5 414 l31 48 29 -45 c21 -33 43 -52 87
-73 51 -26 69 -29 153 -29 85 0 101 3 155 29 156 77 251 259 284 546 16 137
22 328 14 425 l-8 90 -13 -59z"/>
        <path d="M7315 8274 c-159 -25 -282 -99 -340 -206 -26 -47 -30 -65 -33 -155
-4 -91 -2 -107 20 -155 35 -74 70 -113 134 -144 47 -23 63 -26 120 -21 62 5
64 4 59 -17 -18 -61 -82 -176 -169 -304 -106 -155 -140 -226 -162 -340 -19
-99 -18 -313 2 -410 44 -219 209 -407 446 -510 330 -142 823 -129 1133 31 194
101 307 236 356 425 18 70 19 115 19 651 0 549 1 577 19 607 25 41 71 76 151
113 81 38 144 47 207 32 98 -25 147 -89 163 -214 5 -39 10 -394 10 -787 l0
-715 29 -61 c34 -72 93 -126 168 -154 46 -17 78 -20 213 -20 l160 0 0 931 c0
1021 2 986 -60 1109 -74 146 -206 247 -391 297 -48 13 -102 18 -219 18 -231 0
-311 -26 -449 -145 l-80 -69 -20 33 c-28 45 -100 110 -150 135 -89 46 -243 63
-362 41 -130 -24 -240 -110 -276 -213 -27 -80 -23 -198 9 -267 54 -118 127
-170 242 -170 l67 0 -3 -522 c-3 -521 -3 -523 -26 -581 -14 -34 -45 -81 -77
-115 -91 -99 -196 -139 -331 -129 -225 17 -364 197 -364 475 0 137 44 278 171
544 108 227 150 354 156 477 14 243 -73 420 -236 482 -42 16 -83 22 -166 24
-60 2 -123 1 -140 -1z m1045 -252 c107 -53 107 -207 0 -263 -96 -51 -210 20
-210 131 0 81 67 150 145 150 17 0 46 -8 65 -18z m-1050 -41 c93 -67 92 -192
-2 -252 -26 -16 -45 -19 -87 -16 -48 3 -59 9 -91 43 -51 55 -59 101 -28 162
41 84 138 113 208 63z"/>
        <path d="M11050 8266 c-198 -31 -356 -88 -494 -180 -200 -133 -276 -282 -276
-543 l0 -123 224 0 c233 0 263 4 304 43 37 34 52 72 58 145 7 87 19 126 56
185 65 102 202 167 352 167 162 -1 300 -51 376 -137 71 -81 70 -68 70 -718 l0
-581 -25 -50 c-82 -164 -321 -260 -518 -209 -122 32 -221 98 -267 179 -41 70
-39 76 18 76 60 0 139 38 183 88 47 53 69 108 69 176 1 232 -171 372 -434 353
-141 -10 -245 -59 -342 -159 -99 -103 -129 -183 -127 -343 2 -242 92 -420 272
-540 166 -110 367 -162 666 -172 272 -9 487 29 672 117 208 99 330 224 391
405 l27 80 0 580 c0 637 0 632 -62 763 -92 195 -298 326 -613 387 -114 23
-462 29 -580 11z m-110 -1344 c143 -71 82 -272 -83 -272 -113 0 -175 74 -148
177 10 37 59 95 91 106 32 12 107 6 140 -11z"/>
        <path d="M13125 8266 c-194 -45 -348 -154 -413 -294 l-27 -57 0 -275 0 -275
34 -63 c51 -94 132 -157 241 -186 30 -8 46 -15 35 -15 -11 -1 -53 -17 -93 -36
-86 -41 -166 -117 -202 -190 -24 -48 -25 -57 -23 -234 2 -215 17 -282 86 -383
96 -140 326 -264 580 -313 186 -36 485 -29 694 16 220 47 362 117 478 233 92
92 127 152 155 262 19 74 20 113 20 951 l0 875 -162 -4 c-155 -3 -166 -5 -225
-32 -75 -34 -134 -95 -171 -174 l-27 -57 -5 -755 -5 -755 -24 -53 c-57 -125
-211 -202 -408 -202 -166 0 -330 88 -367 197 -21 61 -21 212 0 282 30 102 129
165 280 178 l74 6 0 131 c0 187 -24 226 -150 247 -162 26 -220 92 -220 249 l0
65 103 0 c91 0 107 3 152 27 144 76 202 208 161 368 -30 117 -95 193 -213 247
-51 24 -72 27 -178 30 -76 2 -142 -2 -180 -11z m330 -239 c36 -17 74 -59 85
-93 14 -42 -1 -102 -33 -132 -29 -27 -88 -52 -124 -52 -45 1 -111 36 -133 72
-29 46 -23 127 11 164 54 58 128 74 194 41z"/>
        <path d="M7127 5570 c-127 -32 -192 -112 -185 -225 3 -49 10 -71 31 -98 29
-39 82 -61 128 -55 20 3 29 0 29 -9 0 -22 -37 -89 -95 -169 -82 -115 -99 -165
-99 -304 0 -95 4 -125 23 -172 64 -164 191 -243 391 -243 138 0 191 16 250 74
l46 46 38 -42 c55 -61 111 -78 261 -78 90 0 133 5 172 18 69 24 144 92 174
159 l24 53 3 523 3 522 -156 0 -155 0 0 -474 c0 -260 -3 -487 -6 -505 -15 -74
-113 -110 -162 -58 -39 42 -42 68 -42 383 l0 304 -130 0 -130 0 0 -302 c0
-295 -1 -304 -23 -343 -38 -69 -117 -93 -186 -57 -52 26 -72 61 -78 134 -8 94
9 155 86 307 96 190 105 222 105 363 1 113 0 117 -29 159 -18 25 -49 52 -76
65 -52 26 -155 38 -212 24z m31 -183 c30 -27 29 -71 -3 -102 -31 -32 -75 -33
-102 -2 -40 42 -30 101 19 122 36 15 53 11 86 -18z"/>
        <path d="M11565 5563 c-110 -40 -155 -101 -155 -212 0 -70 15 -107 60 -145 26
-22 41 -26 91 -26 l59 0 0 -297 c0 -271 -2 -302 -19 -340 -11 -23 -31 -49 -46
-59 -26 -17 -47 -14 -113 13 -48 19 101 -146 165 -184 36 -21 52 -24 89 -19
60 8 113 37 155 83 l36 39 42 -37 c73 -65 122 -83 238 -87 231 -9 384 70 434
226 9 26 14 187 16 545 l4 507 -160 0 -161 0 0 -482 c0 -456 -1 -485 -19 -514
-31 -51 -86 -79 -158 -79 -54 0 -66 4 -100 31 -21 17 -48 48 -60 70 -22 38
-23 45 -23 396 0 216 -4 377 -11 407 -14 66 -57 123 -112 150 -64 31 -186 38
-252 14z m50 -178 c30 -30 32 -64 4 -99 -36 -46 -119 -28 -133 29 -7 27 15 80
36 88 32 13 70 6 93 -18z"/>
        <path d="M9743 5552 c-70 -25 -130 -68 -162 -116 -25 -37 -26 -48 -29 -185 -2
-79 -1 -160 3 -179 8 -43 83 -120 126 -129 l32 -6 -44 -23 c-57 -29 -103 -79
-119 -128 -20 -61 -5 -218 27 -284 66 -138 288 -223 551 -209 249 13 413 90
479 225 l28 57 3 498 3 497 -161 0 -160 0 0 -462 c0 -288 -4 -477 -10 -500
-24 -87 -102 -132 -225 -132 -53 0 -82 5 -118 23 -67 32 -87 68 -87 154 0 111
32 150 141 169 l59 10 0 98 0 97 -62 7 c-102 12 -138 45 -138 126 l0 40 50 0
c62 0 120 28 152 72 18 27 23 46 23 98 0 79 -22 121 -84 165 -39 27 -51 30
-134 33 -69 2 -105 -2 -144 -16z m249 -142 c24 -25 29 -36 24 -58 -9 -38 -42
-62 -84 -62 -73 0 -108 75 -57 125 34 35 78 33 117 -5z"/>
        <path d="M10844 5547 c-164 -79 -176 -303 -19 -363 32 -12 60 -15 95 -11 l50
6 0 -444 0 -445 166 0 165 0 -3 533 c-3 457 -6 539 -20 580 -40 118 -107 158
-273 164 -100 4 -114 2 -161 -20z m116 -157 c47 -47 9 -130 -59 -130 -74 0
-110 85 -55 129 34 27 88 27 114 1z"/>
        <path d="M12910 5549 c-91 -41 -130 -102 -130 -202 0 -78 24 -119 90 -155 37
-20 55 -23 103 -19 l57 5 0 -444 0 -444 166 0 165 0 -3 538 -3 537 -25 60
c-45 106 -124 145 -293 145 -61 0 -94 -6 -127 -21z m110 -159 c27 -27 27 -83
-2 -110 -48 -45 -138 -9 -138 55 0 64 94 101 140 55z"/>
        <path d="M13670 5561 c-109 -33 -170 -117 -153 -211 14 -85 65 -130 146 -130
l47 0 0 -279 0 -279 -45 -6 c-49 -8 -97 -42 -120 -87 -19 -36 -19 -132 -1
-168 41 -79 135 -118 258 -108 98 8 161 45 202 118 l31 54 3 403 3 403 43 43
c24 24 60 49 81 56 48 16 120 8 147 -16 47 -43 48 -53 48 -574 l0 -490 165 0
165 0 0 498 c0 543 -1 556 -57 640 -66 98 -172 142 -342 142 -123 0 -194 -16
-264 -60 l-49 -30 -19 24 c-35 44 -97 66 -185 65 -43 0 -90 -4 -104 -8z m67
-143 c48 -52 20 -128 -47 -128 -38 0 -80 39 -80 75 0 35 42 75 78 75 17 0 37
-9 49 -22z m11 -864 c12 -14 22 -36 22 -50 0 -35 -42 -74 -80 -74 -37 0 -80
39 -80 72 0 30 26 67 54 78 29 12 57 3 84 -26z"/>
        <path d="M8735 5449 c-148 -19 -228 -93 -228 -210 0 -98 50 -153 168 -184 82
-21 410 -21 482 0 59 18 121 60 154 106 35 49 39 148 9 217 l-22 52 -105 0
-105 0 26 -31 c69 -82 -5 -199 -125 -199 l-42 0 21 23 c17 18 22 36 22 80 0
49 -4 61 -30 91 -46 51 -119 70 -225 55z"/>
        <path d="M8680 4841 c-39 -12 -93 -41 -118 -65 -84 -75 -72 -227 21 -285 69
-42 130 -51 338 -51 174 0 205 2 252 20 65 24 135 82 153 127 22 51 18 141 -8
193 l-23 45 -104 3 -103 3 26 -31 c70 -83 -3 -200 -125 -200 l-42 0 21 23 c31
33 30 112 0 157 -37 54 -80 70 -178 69 -47 0 -96 -4 -110 -8z"/>
    </g>
</svg>
