<?xml version="1.0" standalone="no"?>
<!DOCTYPE svg PUBLIC "-//W3C//DTD SVG 20010904//EN"
        "http://www.w3.org/TR/2001/REC-SVG-20010904/DTD/svg10.dtd">
<svg version="1.0" xmlns="http://www.w3.org/2000/svg"
     width="512px" height="512px" viewBox="0 0 2109.000000 2109.000000"
     preserveAspectRatio="xMidYMid meet">
    <metadata>
        Created by potrace 1.16, written by Peter Selinger 2001-2019
    </metadata>
    <g transform="translate(0.000000,2109.000000) scale(0.100000,-0.100000)"
       fill="#000000" stroke="none">
        <path d="M10611 17530 c-24 -5 -61 -21 -82 -35 -80 -53 -6365 -4798 -6382
-4818 -38 -45 -60 -111 -65 -191 l-5 -79 124 6 c271 12 566 105 814 256 32 20
1316 984 2853 2144 1536 1159 2798 2107 2803 2107 5 0 1257 -941 2782 -2092
1525 -1150 2809 -2116 2854 -2145 239 -156 552 -258 832 -270 l124 -6 -5 85
c-4 71 -9 93 -35 139 -29 51 -184 170 -3214 2457 -1751 1322 -3202 2412 -3224
2422 -51 24 -118 31 -174 20z"/>
        <path d="M10569 16332 c-406 -247 -932 -763 -1259 -1233 -229 -330 -398 -699
-444 -968 -33 -192 -13 -430 50 -621 129 -386 427 -701 890 -942 231 -120 482
-214 742 -277 137 -34 134 -34 382 36 247 70 553 201 757 324 415 251 671 573
771 967 24 99 27 122 26 307 0 193 -1 204 -32 316 -39 146 -87 269 -167 429
-181 363 -428 693 -800 1066 -224 226 -384 365 -561 491 -81 58 -247 163 -257
163 -2 0 -45 -26 -98 -58z m177 -195 c431 -266 984 -864 1266 -1367 169 -303
244 -525 254 -760 23 -509 -278 -944 -858 -1241 -147 -75 -224 -89 -387 -71
-204 23 -335 75 -420 167 -85 94 -92 182 -22 289 14 21 93 93 176 160 181 145
298 261 344 339 135 229 138 556 9 787 -78 139 -209 271 -323 325 -87 41 -128
82 -157 154 -27 72 -30 172 -5 220 9 19 15 36 12 39 -2 2 -22 -3 -45 -12 l-40
-16 0 28 c1 93 56 251 121 347 40 59 43 62 82 61 59 -1 69 22 63 149 -5 111
-30 206 -78 297 -30 57 -68 101 -68 80 0 -6 11 -44 24 -84 46 -138 44 -261 -7
-372 -13 -28 -59 -95 -101 -149 -43 -54 -93 -123 -112 -155 -67 -110 -122
-342 -107 -450 5 -34 3 -42 -11 -42 -9 0 -25 9 -36 20 -11 11 -22 15 -25 9 -9
-14 -26 -261 -19 -281 4 -14 9 -16 24 -8 30 16 44 12 95 -27 27 -20 72 -51
101 -68 l54 -32 -103 -52 c-56 -28 -108 -51 -116 -51 -22 0 -51 31 -52 54 0
17 -3 16 -14 -9 -20 -43 -18 -95 5 -139 15 -31 18 -51 13 -96 -9 -86 6 -116
110 -221 114 -114 141 -164 134 -246 -2 -32 -7 -69 -11 -83 l-8 -25 21 25 c45
53 85 151 89 217 6 83 -12 113 -66 113 -21 0 -43 -5 -49 -11 -9 -9 -19 1 -42
37 -34 53 -39 90 -16 135 31 59 169 117 248 105 127 -21 216 -153 204 -302
-11 -141 -95 -238 -342 -393 -185 -117 -265 -193 -323 -309 -104 -208 -72
-407 93 -569 41 -40 72 -73 69 -73 -19 0 -299 112 -399 159 -529 252 -844 618
-910 1058 -19 125 -19 200 1 331 42 288 228 670 502 1035 282 374 648 734 956
938 65 44 122 79 125 79 4 0 38 -19 77 -43z"/>
        <path d="M8450 12895 c-88 -24 -189 -80 -270 -150 -41 -36 -100 -78 -130 -93
-48 -24 -66 -27 -150 -27 -76 1 -105 5 -142 22 -27 12 -48 19 -48 14 0 -5 37
-44 83 -88 286 -274 555 -318 742 -122 30 32 55 62 55 68 0 5 -28 -2 -62 -16
-62 -26 -176 -38 -194 -20 -13 13 19 59 96 137 90 92 161 125 246 117 78 -8
129 -40 244 -151 251 -243 453 -344 639 -320 l56 8 -78 12 c-187 30 -357 155
-535 396 -117 160 -221 218 -397 224 -68 3 -118 -1 -155 -11z"/>
        <path d="M12630 12895 c-133 -38 -192 -82 -299 -224 -177 -234 -344 -356 -526
-385 l-80 -12 56 -8 c181 -23 384 76 622 303 135 129 182 160 261 168 88 9
156 -24 253 -123 77 -79 103 -117 88 -132 -4 -4 -34 -7 -68 -7 -46 1 -77 8
-121 28 -32 15 -61 25 -64 23 -7 -8 34 -60 79 -101 183 -165 445 -112 712 144
48 46 87 87 87 92 0 4 -21 -2 -47 -13 -66 -29 -165 -35 -239 -14 -69 20 -105
43 -194 121 -72 63 -196 127 -278 144 -69 14 -185 13 -242 -4z"/>
        <path d="M4376 11838 c-255 -162 -633 -319 -911 -378 -33 -7 -64 -17 -70 -22
-5 -4 3269 -8 7275 -7 l7285 0 -150 39 c-318 81 -592 198 -867 367 l-86 53
-6199 -1 -6198 0 -79 -51z"/>
        <path d="M5358 10787 c-26 -8 -55 -20 -65 -27 -52 -39 -78 -70 -99 -115 l-24
-50 0 -2427 0 -2428 -219 0 -218 0 -48 -72 c-69 -104 -177 -247 -273 -363
l-84 -100 6293 -3 c3461 -1 6294 0 6297 3 3 2 -13 25 -34 51 -96 114 -221 278
-287 376 l-72 107 -172 1 -173 0 -2 2428 -3 2427 -23 47 c-27 54 -88 113 -141
136 -21 9 -65 16 -106 16 -61 0 -78 -4 -125 -30 -62 -35 -114 -96 -130 -152
-7 -25 -10 -820 -10 -2454 l0 -2418 -635 0 -635 0 0 2419 c0 2115 -2 2424 -15
2461 -37 104 -138 175 -250 175 -83 0 -144 -26 -198 -84 -84 -90 -77 145 -77
-2563 l0 -2408 -995 0 -995 0 0 2428 c0 2327 -1 2429 -19 2467 -47 103 -133
159 -246 159 -41 0 -85 -7 -106 -16 -53 -23 -114 -82 -141 -136 l-23 -47 -3
-2427 -2 -2428 -630 0 -630 0 0 2408 c0 2708 7 2473 -77 2563 -54 58 -115 84
-198 84 -74 0 -160 -39 -205 -93 -65 -79 -60 117 -60 -2544 l0 -2418 -995 0
-995 0 -2 2433 -3 2432 -31 55 c-77 135 -256 177 -385 91 -47 -32 -94 -96
-109 -150 -6 -24 -10 -865 -10 -2448 l0 -2413 -635 0 -635 0 0 2428 0 2427
-24 50 c-54 116 -191 177 -318 142z"/>
        <path d="M3915 4464 c-274 -247 -691 -485 -1027 -586 -43 -13 -78 -26 -78 -30
0 -5 3525 -8 7833 -7 l7832 1 -115 37 c-368 121 -725 327 -1029 593 l-44 38
-6661 0 -6661 -1 -50 -45z"/>
    </g>
</svg>
