<?xml version="1.0" standalone="no"?>
<!DOCTYPE svg PUBLIC "-//W3C//DTD SVG 20010904//EN"
        "http://www.w3.org/TR/2001/REC-SVG-20010904/DTD/svg10.dtd">
<svg version="1.0" xmlns="http://www.w3.org/2000/svg"
     width="512px" height="512px" viewBox="0 0 2109.000000 2109.000000"
     preserveAspectRatio="xMidYMid meet">
    <metadata>
        Created by potrace 1.16, written by Peter Selinger 2001-2019
    </metadata>
    <g transform="translate(0.000000,2109.000000) scale(0.100000,-0.100000)"
       fill="#000000" stroke="none">
        <path d="M8659 16833 c-52 -8 -132 -66 -164 -117 l-30 -49 -3 -1639 -2 -1639
21 -50 c83 -191 352 -200 452 -14 l22 40 3 1620 c2 1139 -1 1633 -8 1664 -31
123 -161 206 -291 184z"/>
        <path d="M12639 16831 c-90 -19 -167 -92 -189 -181 -7 -32 -10 -518 -8 -1665
l3 -1620 22 -40 c58 -109 183 -160 304 -123 51 15 114 69 142 122 l22 41 3
1625 c2 1224 0 1636 -9 1668 -33 120 -165 199 -290 173z"/>
        <path d="M10595 16251 c-50 -22 -96 -67 -121 -118 -18 -37 -19 -103 -24 -2219
l-5 -2181 -170 210 c-325 401 -320 396 -448 397 -146 0 -246 -98 -247 -242 0
-32 7 -75 15 -96 9 -21 224 -294 478 -607 520 -640 500 -620 627 -620 127 0
107 -20 626 619 255 313 470 587 479 608 19 49 19 138 0 185 -43 101 -121 153
-232 153 -127 -1 -123 3 -437 -383 l-186 -229 -2 2184 c-3 2077 -4 2185 -21
2219 -25 50 -74 98 -122 120 -53 25 -156 25 -210 0z"/>
        <path d="M4370 14363 c-360 -56 -665 -235 -874 -512 -112 -149 -184 -301 -239
-505 l-22 -81 -3 -3565 c-3 -3952 -8 -3656 63 -3866 151 -454 519 -778 998
-881 78 -17 404 -18 6412 -18 5986 0 6334 1 6405 17 276 65 488 179 674 364
174 173 283 364 355 624 l26 95 0 3610 0 3610 -24 95 c-127 505 -476 853 -995
993 l-81 22 -1650 3 c-1111 2 -1662 0 -1685 -7 -92 -27 -164 -131 -163 -236 0
-96 40 -166 123 -218 l35 -22 1620 -5 1620 -5 80 -23 c242 -67 435 -223 541
-437 78 -159 86 -205 91 -557 l5 -308 -2528 -2 -2529 -3 -53 -29 c-150 -84
-175 -283 -50 -403 71 -68 -157 -63 2633 -63 l2525 0 0 -830 0 -830 -3484 0
-3483 0 -27 -21 c-49 -39 -56 -66 -56 -224 0 -158 7 -185 56 -224 l27 -21
3484 0 3484 0 -3 -1882 -3 -1883 -22 -76 c-92 -323 -328 -548 -645 -614 -102
-22 -12518 -22 -12619 -1 -312 67 -551 295 -642 615 l-22 76 -3 2958 -2 2957
2525 0 c2766 0 2555 -5 2629 60 58 51 80 103 81 185 0 125 -71 220 -185 244
-36 8 -782 11 -2552 11 l-2500 0 5 308 c5 352 13 398 91 557 106 214 299 370
541 437 l80 23 1620 5 1620 5 35 22 c83 52 123 122 123 218 1 74 -28 140 -80
186 -73 63 50 59 -1730 58 -895 -1 -1639 -3 -1653 -6z"/>
        <path d="M7070 11450 c-111 -69 -294 -204 -435 -321 -135 -113 -453 -426 -588
-579 -448 -509 -760 -1055 -852 -1495 -23 -110 -31 -320 -15 -441 45 -360 190
-646 465 -919 325 -322 838 -585 1418 -725 l128 -31 147 36 c443 111 864 299
1167 525 382 283 600 608 681 1015 26 127 26 416 0 535 -45 212 -180 539 -317
768 -292 488 -746 1002 -1225 1387 -183 148 -422 306 -461 304 -10 0 -61 -27
-113 -59z m207 -214 c184 -113 406 -298 633 -525 475 -476 827 -998 975 -1446
55 -165 75 -285 75 -446 0 -356 -129 -650 -409 -930 -169 -169 -370 -308 -609
-422 l-87 -42 -180 1 c-161 0 -190 3 -276 26 -170 46 -285 121 -334 218 -72
141 -27 242 179 407 360 288 441 386 508 620 19 65 23 103 23 233 0 177 -16
253 -81 383 -99 197 -232 333 -401 414 -91 43 -126 84 -159 188 -30 93 -28
164 6 222 11 19 19 38 16 40 -2 3 -26 -5 -51 -16 -26 -12 -49 -21 -50 -21 -6
0 7 101 22 165 19 86 61 181 115 261 41 61 41 61 83 56 39 -4 45 -1 61 24 16
23 19 46 18 124 -2 109 -28 220 -75 320 -45 97 -119 168 -80 77 37 -87 54
-180 49 -284 -3 -88 -7 -106 -39 -173 -21 -43 -75 -124 -128 -190 -156 -196
-224 -372 -225 -587 -1 -99 -3 -113 -18 -113 -9 0 -26 11 -36 25 -11 14 -23
22 -25 18 -8 -13 -27 -154 -27 -198 0 -22 -1 -59 -2 -82 -2 -53 3 -58 43 -44
30 10 36 8 100 -40 38 -28 91 -63 119 -78 l50 -27 -112 -57 c-144 -73 -172
-74 -188 -6 l-7 34 -13 -30 c-20 -46 -16 -128 8 -167 17 -28 19 -44 15 -105
-3 -39 -3 -84 1 -98 4 -15 58 -80 120 -145 92 -95 118 -129 135 -175 24 -65
26 -104 6 -160 -8 -21 -13 -41 -11 -43 7 -7 55 64 80 118 56 121 56 220 0 256
-21 15 -31 15 -66 5 -39 -12 -43 -11 -60 11 -80 99 -56 188 66 248 94 47 177
52 250 16 97 -47 160 -161 159 -286 0 -101 -27 -168 -99 -248 -62 -69 -118
-112 -309 -232 -143 -91 -189 -128 -253 -204 -154 -185 -187 -436 -81 -623 37
-64 104 -140 158 -178 23 -15 40 -30 38 -32 -6 -6 -225 72 -343 122 -472 201
-834 505 -1004 845 -251 501 -151 1038 322 1737 271 400 676 830 1047 1112
106 81 249 171 270 171 10 0 49 -20 88 -44z"/>
        <path d="M10685 8098 c-42 -23 -55 -50 -55 -121 0 -63 3 -71 29 -98 l29 -29
3147 0 3147 0 29 29 c26 27 29 36 29 96 0 63 -2 69 -34 101 l-34 34 -3133 0
c-2260 -1 -3140 -4 -3154 -12z"/>
        <path d="M4741 7645 c-97 -21 -214 -85 -316 -172 -102 -87 -162 -117 -256
-132 -75 -12 -144 -3 -215 28 -24 11 -44 16 -44 11 0 -17 153 -162 225 -212
148 -105 262 -148 391 -148 100 0 171 23 242 80 52 41 118 117 109 126 -3 3
-36 -7 -74 -22 -74 -30 -182 -39 -204 -17 -26 26 151 217 237 254 72 32 148
35 217 9 48 -18 82 -44 193 -150 214 -203 384 -312 542 -345 72 -16 162 -18
202 -5 23 7 22 8 -10 9 -64 2 -159 30 -239 70 -145 74 -267 189 -420 399 -65
88 -117 134 -197 172 -120 58 -252 73 -383 45z"/>
        <path d="M9410 7654 c-59 -12 -151 -47 -196 -75 -72 -45 -97 -72 -191 -198
-135 -182 -248 -283 -400 -360 -66 -33 -163 -60 -223 -62 -32 -1 -33 -2 -10
-9 14 -4 50 -8 80 -9 194 -3 413 116 664 360 142 139 186 164 286 164 59 0 86
-5 125 -24 92 -45 262 -228 236 -254 -23 -23 -140 -13 -209 18 -34 15 -65 25
-69 21 -9 -9 46 -75 105 -122 72 -59 144 -84 246 -84 124 0 231 38 371 133 60
41 245 213 245 228 0 5 -21 -1 -47 -12 -75 -32 -137 -40 -212 -28 -92 14 -153
45 -248 125 -157 133 -272 183 -433 189 -52 2 -106 1 -120 -1z"/>
        <path d="M10659 7251 c-26 -27 -29 -35 -29 -98 0 -72 13 -100 57 -122 16 -8
867 -11 3153 -11 l3132 0 34 34 c32 32 34 38 34 101 0 60 -3 69 -29 96 l-29
29 -3147 0 -3147 0 -29 -29z"/>
    </g>
</svg>
