<?xml version="1.0" standalone="no"?>
<!DOCTYPE svg PUBLIC "-//W3C//DTD SVG 20010904//EN"
        "http://www.w3.org/TR/2001/REC-SVG-20010904/DTD/svg10.dtd">
<svg version="1.0" xmlns="http://www.w3.org/2000/svg"
     width="512px" height="512px" viewBox="0 0 2109.000000 2110.000000"
     preserveAspectRatio="xMidYMid meet">
    <metadata>
        Created by potrace 1.16, written by Peter Selinger 2001-2019
    </metadata>
    <g transform="translate(0.000000,2110.000000) scale(0.100000,-0.100000)"
       fill="#000000" stroke="none">
        <path d="M10460 17938 c0 -47 3 -126 6 -176 l7 -92 151 0 c1675 -1 3315 -618
4576 -1724 383 -336 781 -775 1065 -1174 38 -53 64 -81 73 -77 10 4 257 172
280 191 2 1 -38 60 -90 131 -1040 1434 -2596 2454 -4319 2832 -505 110 -907
158 -1431 168 l-318 6 0 -85z"/>
        <path d="M10295 16750 c-1325 -79 -2540 -566 -3565 -1428 -165 -140 -548 -523
-689 -691 -1128 -1342 -1614 -3040 -1365 -4776 43 -304 128 -665 231 -980 298
-913 794 -1718 1478 -2400 1037 -1035 2376 -1642 3850 -1745 181 -13 610 -13
795 0 1220 84 2345 515 3310 1266 506 394 992 924 1344 1468 455 702 758 1485
890 2306 61 377 80 664 73 1080 -6 310 -12 402 -43 650 -187 1496 -946 2882
-2114 3857 -946 791 -2104 1270 -3330 1378 -216 19 -664 27 -865 15z m880
-624 c522 -56 1027 -183 1495 -375 80 -32 144 -63 143 -68 -3 -13 -475 -1006
-482 -1015 -4 -4 -69 17 -146 48 -305 121 -653 210 -989 254 -140 18 -424 40
-523 40 l-43 0 0 -178 0 -179 178 -6 c355 -12 729 -82 1083 -203 149 -51 279
-103 279 -112 0 -7 -822 -1735 -830 -1745 -4 -4 -49 6 -100 23 -388 127 -831
125 -1227 -5 -1027 -338 -1588 -1451 -1252 -2483 12 -35 19 -65 18 -67 -10 -8
-3106 -1427 -3118 -1429 -28 -3 -195 463 -270 754 -112 438 -159 787 -168
1251 -10 518 36 931 158 1420 463 1856 1905 3354 3739 3884 390 112 744 175
1185 209 124 9 728 -3 870 -18z m2221 -737 c770 -460 1409 -1096 1876 -1867
101 -167 212 -382 202 -391 -14 -12 -1025 -474 -1028 -470 -1 2 -27 49 -56
104 -270 507 -685 994 -1165 1365 -99 77 -347 243 -437 294 l-67 37 33 72 c42
91 446 939 453 950 2 4 8 7 12 7 4 0 83 -46 177 -101z m-698 -1328 c509 -316
950 -760 1268 -1274 63 -101 158 -277 153 -281 -29 -21 -1763 -806 -1768 -800
-4 5 -37 54 -73 109 -120 185 -265 342 -448 483 -47 36 -89 69 -94 73 -7 6
821 1768 832 1769 1 0 60 -36 130 -79z m3020 -1468 c418 -1144 437 -2393 54
-3551 -219 -661 -543 -1239 -1008 -1797 -139 -167 -472 -500 -639 -639 -437
-364 -883 -639 -1376 -850 -1092 -465 -2294 -558 -3454 -264 -170 43 -517 155
-651 210 l-80 33 740 1555 c407 855 741 1557 743 1559 1 2 42 -5 90 -17 304
-74 599 -81 898 -21 290 58 597 204 835 396 89 72 257 243 321 328 355 465
488 1060 363 1625 -14 63 -27 119 -27 123 -3 11 1755 818 1770 813 15 -6 94
-250 138 -426 258 -1051 69 -2159 -522 -3064 -245 -376 -568 -722 -922 -990
-642 -486 -1390 -754 -2213 -792 l-148 -7 0 -175 0 -175 178 6 c1061 37 2079
484 2842 1247 699 699 1114 1570 1232 2585 20 174 17 725 -6 910 -41 343 -123
696 -224 965 l-28 76 515 237 c284 130 519 237 522 237 4 0 29 -62 57 -137z
m-4927 -164 c164 -16 419 -79 421 -103 1 -4 -52 -119 -116 -255 l-118 -248
-66 19 c-199 55 -473 40 -676 -36 -376 -142 -645 -460 -723 -855 -29 -151 -21
-355 22 -521 6 -25 0 -29 -237 -137 -134 -61 -249 -113 -257 -115 -11 -2 -23
24 -43 97 -118 415 -78 828 117 1220 86 173 175 295 320 440 145 145 267 233
440 320 296 148 604 206 916 174z m901 -365 c138 -111 270 -258 367 -407 26
-40 40 -72 35 -77 -5 -4 -119 -59 -254 -120 l-244 -112 -16 23 c-35 54 -134
171 -174 206 l-43 38 120 253 c67 138 125 252 130 252 6 0 41 -25 79 -56z
m601 -969 c61 -276 44 -607 -44 -878 -38 -119 -132 -313 -199 -413 -254 -379
-637 -639 -1086 -734 -142 -30 -412 -38 -560 -16 -98 14 -223 41 -231 50 -2 2
52 118 119 259 l121 257 41 -8 c23 -4 113 -6 201 -6 137 1 174 5 257 27 380
100 678 378 802 748 48 144 68 357 47 506 l-7 51 250 116 c138 63 256 115 262
116 6 0 18 -34 27 -75z m-2337 -1276 l51 -34 -119 -250 c-65 -137 -121 -251
-123 -253 -12 -13 -228 152 -329 252 -78 77 -209 237 -200 245 2 3 118 57 256
121 l252 116 81 -81 c44 -45 103 -97 131 -116z m-906 -250 c128 -178 326 -366
513 -483 42 -27 77 -54 77 -60 0 -6 -331 -707 -737 -1558 l-736 -1547 -61 31
c-182 91 -503 295 -705 446 -603 452 -1102 1017 -1475 1667 -47 83 -82 153
-78 157 11 11 3115 1437 3127 1437 6 0 39 -40 75 -90z"/>
        <path d="M9330 15030 c-128 -34 -214 -84 -310 -180 -141 -140 -200 -284 -200
-484 0 -122 17 -193 70 -301 69 -140 165 -236 305 -305 108 -53 179 -70 301
-70 200 0 344 59 484 200 69 68 94 102 127 170 57 117 77 216 71 345 -15 285
-193 519 -463 611 -111 37 -276 43 -385 14z"/>
        <path d="M7550 14060 c-229 -32 -422 -172 -520 -375 -188 -393 21 -850 440
-961 87 -23 253 -23 340 0 473 124 665 681 371 1076 -138 186 -398 294 -631
260z"/>
        <path d="M7630 11995 c-146 -40 -266 -126 -348 -248 -73 -111 -97 -195 -96
-342 0 -103 4 -129 26 -187 80 -212 248 -356 458 -394 201 -36 385 21 530 165
150 149 207 339 164 548 -41 202 -193 375 -385 443 -85 29 -268 37 -349 15z"/>
        <path d="M6172 10720 c-112 -30 -187 -74 -278 -165 -99 -98 -157 -205 -179
-330 -18 -100 -18 -140 0 -239 42 -237 233 -441 470 -501 77 -19 234 -19 310
0 245 63 421 249 471 496 63 314 -122 632 -426 731 -96 30 -271 35 -368 8z"/>
        <path d="M6003 5355 c-59 -69 -109 -131 -111 -138 -1 -7 53 -58 120 -113 819
-671 1799 -1166 2816 -1423 573 -145 1048 -209 1691 -227 l234 -7 -6 108 c-4
59 -7 141 -7 180 l0 72 -287 6 c-303 6 -479 20 -783 63 -1246 172 -2455 702
-3425 1499 -61 50 -115 94 -122 98 -7 4 -53 -41 -120 -118z"/>
    </g>
</svg>
