<?xml version="1.0" standalone="no"?>
<!DOCTYPE svg PUBLIC "-//W3C//DTD SVG 20010904//EN"
        "http://www.w3.org/TR/2001/REC-SVG-20010904/DTD/svg10.dtd">
<svg version="1.0" xmlns="http://www.w3.org/2000/svg"
     width="512px" height="512px" viewBox="0 0 2109.000000 2109.000000"
     preserveAspectRatio="xMidYMid meet">
    <metadata>
        Created by potrace 1.16, written by Peter Selinger 2001-2019
    </metadata>
    <g transform="translate(0.000000,2109.000000) scale(0.100000,-0.100000)"
       fill="#000000" stroke="none">
        <path d="M13752 16916 c-124 -40 -200 -138 -210 -267 -3 -47 1 -82 13 -118 22
-67 99 -152 162 -179 27 -11 236 -73 465 -138 l417 -118 -137 -71 c-75 -39
-2053 -1038 -4395 -2220 -3127 -1578 -4267 -2158 -4293 -2183 -118 -114 -118
-310 -2 -429 58 -59 126 -87 215 -87 70 0 75 1 245 85 95 47 2074 1045 4397
2218 2323 1173 4225 2131 4226 2129 2 -2 -34 -224 -81 -493 -59 -344 -83 -505
-80 -541 7 -77 42 -148 97 -198 160 -144 422 -77 487 124 6 19 77 418 157 885
162 943 164 959 113 1046 -35 59 -84 104 -138 128 -83 36 -1503 434 -1560 438
-30 1 -74 -4 -98 -11z"/>
        <path d="M14825 13383 c-185 -22 -394 -73 -539 -130 -767 -302 -1284 -997
-1346 -1813 -6 -88 -10 -1111 -10 -2922 l0 -2788 1480 0 1480 0 0 3830 0 3830
-517 -1 c-285 -1 -531 -4 -548 -6z m595 -3823 l0 -3360 -1010 0 -1010 0 0
2570 c0 1748 3 2602 11 2668 15 139 35 231 79 363 174 523 616 936 1147 1070
168 42 211 46 511 48 l272 1 0 -3360z"/>
        <path d="M11150 11744 c-14 -2 -65 -9 -115 -15 -123 -15 -330 -69 -456 -119
-693 -274 -1179 -891 -1284 -1631 -12 -89 -15 -404 -15 -2176 l0 -2073 1475 0
1475 0 0 3010 0 3010 -527 -1 c-291 -1 -539 -3 -553 -5z m620 -3004 l0 -2540
-1015 0 -1015 0 0 1748 c0 1043 4 1794 10 1864 24 285 108 529 264 763 250
374 637 620 1085 690 56 8 189 13 379 14 l292 1 0 -2540z"/>
        <path d="M7078 9435 c-706 -97 -1300 -613 -1488 -1294 -66 -239 -63 -172 -67
-1343 l-4 -1068 1481 0 1480 0 0 1860 0 1860 -652 -1 c-482 -1 -679 -5 -750
-14z m932 -1845 l0 -1390 -1010 0 -1011 0 4 818 3 817 26 106 c62 250 169 447
343 628 212 221 496 365 800 404 17 2 213 5 438 6 l407 1 0 -1390z"/>
    </g>
</svg>
