<?xml version="1.0" standalone="no"?>
<!DOCTYPE svg PUBLIC "-//W3C//DTD SVG 20010904//EN"
        "http://www.w3.org/TR/2001/REC-SVG-20010904/DTD/svg10.dtd">
<svg version="1.0" xmlns="http://www.w3.org/2000/svg"
     width="512px" height="512px" viewBox="0 0 2109.000000 2109.000000"
     preserveAspectRatio="xMidYMid meet">
    <metadata>
        Created by potrace 1.16, written by Peter Selinger 2001-2019
    </metadata>
    <g transform="translate(0.000000,2109.000000) scale(0.100000,-0.100000)"
       fill="#000000" stroke="none">
        <path d="M5916 16309 c-167 -18 -318 -63 -465 -140 -133 -70 -239 -149 -345
-259 -174 -183 -280 -379 -342 -640 -18 -71 -19 -231 -22 -3210 -2 -2267 0
-3146 8 -3173 14 -49 74 -115 125 -138 38 -18 89 -19 883 -19 l842 0 0 -1334
c0 -1442 -1 -1412 54 -1572 56 -164 133 -290 259 -421 171 -178 367 -282 616
-328 74 -13 511 -15 4008 -15 4353 0 4029 -5 4241 66 450 149 764 499 878 979
15 60 18 150 21 615 3 419 1 555 -8 590 -17 58 -88 131 -145 148 -31 9 -235
12 -818 12 l-776 0 0 398 0 398 128 12 c472 45 934 230 1322 530 117 91 316
287 413 407 278 344 463 752 537 1183 43 255 47 486 14 770 l-16 133 89 92
c102 106 150 180 190 292 25 73 28 92 28 225 0 125 -3 155 -23 215 -38 115
-88 193 -181 285 -98 98 -180 146 -306 181 -105 29 -269 29 -367 1 l-67 -19
-38 40 c-132 137 -346 307 -519 413 -318 193 -719 327 -1076 359 l-77 7 -3
1067 -4 1066 -26 96 c-103 377 -405 643 -783 688 -109 13 -8125 13 -8249 0z
m684 -3784 l0 -3325 -695 0 -695 0 0 2945 c0 2649 2 2954 16 3023 71 346 362
620 712 671 31 5 193 9 360 10 l302 1 0 -3325z m7531 3315 c132 -25 265 -123
325 -243 54 -105 54 -100 54 -1198 l0 -1015 -134 -22 c-1044 -172 -1881 -981
-2091 -2022 -37 -182 -48 -300 -48 -510 0 -684 250 -1299 728 -1789 325 -334
714 -563 1160 -686 122 -33 342 -75 396 -75 l29 0 0 -405 0 -405 -3063 0
-3063 0 -52 -26 c-29 -14 -64 -41 -78 -60 -53 -69 -54 -79 -54 -725 0 -393 -4
-616 -11 -651 -6 -29 -29 -91 -51 -138 -53 -110 -158 -219 -266 -273 -91 -45
-206 -72 -273 -63 -244 33 -445 194 -538 434 l-26 67 -3 4908 -2 4907 3504 0
c2290 0 3522 -3 3557 -10z m994 -2726 c139 -20 344 -72 471 -119 295 -110 613
-312 809 -514 l50 -51 -800 -800 -800 -800 -375 373 c-365 363 -377 375 -460
415 -110 54 -200 74 -326 74 -271 0 -512 -149 -628 -387 -50 -103 -70 -190
-69 -315 0 -127 18 -203 75 -320 40 -82 54 -98 454 -505 537 -548 867 -873
927 -914 132 -90 259 -125 432 -119 137 5 235 33 340 95 45 27 280 255 960
934 495 495 903 899 906 899 13 0 19 -252 9 -380 -24 -317 -94 -577 -230 -856
-342 -704 -1027 -1191 -1808 -1283 -120 -15 -404 -15 -524 0 -781 93 -1463
577 -1808 1284 -320 656 -314 1391 17 2047 357 707 1066 1186 1861 1258 128
11 379 4 517 -16z m1977 -836 c207 -96 295 -339 195 -541 -34 -68 -90 -126
-1124 -1158 -1028 -1026 -1092 -1087 -1153 -1115 -57 -26 -76 -29 -160 -29
-180 1 -123 -44 -853 684 -741 739 -702 691 -702 871 0 98 2 110 32 170 105
213 362 294 563 177 19 -11 226 -210 460 -443 375 -373 429 -423 463 -429 92
-17 48 -57 1007 900 487 486 901 891 920 901 70 35 114 44 205 41 72 -2 101
-8 147 -29z m-894 -5670 l-4 -393 -28 -85 c-53 -159 -118 -263 -235 -372 -120
-114 -276 -191 -441 -218 -45 -7 -1104 -10 -3517 -8 l-3452 3 31 50 c43 68 91
183 119 285 23 83 23 97 27 608 l3 522 3750 0 3750 0 -3 -392z"/>
        <path d="M8704 14494 c-204 -123 -497 -428 -634 -660 -167 -282 -192 -497 -84
-722 49 -103 189 -243 318 -319 102 -60 252 -122 374 -153 96 -25 114 -23 286
37 248 86 430 211 535 368 71 106 92 176 98 317 5 108 3 125 -22 205 -37 122
-121 279 -217 409 -139 187 -382 421 -536 516 l-60 37 -58 -35z m121 -110
c262 -173 562 -554 645 -819 44 -138 26 -298 -47 -423 -60 -102 -188 -214
-323 -283 -55 -28 -76 -33 -135 -33 -181 0 -306 97 -249 193 10 17 58 62 106
101 49 39 104 92 123 118 71 98 84 251 32 365 -32 71 -105 149 -163 177 -36
16 -50 30 -66 66 -18 43 -19 64 -2 109 6 14 3 16 -16 10 -22 -7 -23 -5 -17 31
10 63 58 148 87 154 22 5 25 12 28 59 4 62 -22 152 -49 177 -23 21 -23 21 -4
-55 21 -79 9 -125 -56 -212 -65 -89 -91 -150 -97 -231 -4 -56 -7 -66 -18 -57
-17 14 -20 5 -27 -66 -5 -58 -1 -76 18 -69 13 5 95 -42 95 -55 0 -9 -66 -41
-85 -41 -8 0 -15 7 -15 15 0 8 -5 15 -11 15 -7 0 -9 -27 -4 -87 7 -88 7 -88
56 -140 59 -62 74 -95 60 -135 -15 -41 2 -34 28 12 16 28 21 52 19 82 -3 40
-5 43 -33 43 -21 1 -34 8 -45 27 -14 25 -13 29 10 52 86 92 223 6 189 -118
-14 -52 -47 -86 -156 -159 -98 -67 -139 -111 -161 -176 -26 -75 -4 -170 53
-227 25 -25 25 -25 3 -18 -119 36 -289 132 -379 212 -61 54 -133 162 -160 237
-30 83 -36 210 -14 295 59 227 252 509 503 733 85 77 195 157 214 157 5 0 34
-16 63 -36z"/>
        <path d="M10340 13860 l0 -130 1705 0 1705 0 0 130 0 130 -1705 0 -1705 0 0
-130z"/>
        <path d="M7695 12901 c-22 -10 -59 -34 -83 -54 -57 -48 -110 -64 -165 -50 -23
7 -44 9 -47 6 -10 -10 97 -97 155 -125 68 -32 121 -36 171 -12 31 15 89 72 82
80 -2 2 -25 -5 -51 -14 -66 -24 -77 -8 -32 46 39 45 96 69 138 58 14 -3 61
-39 104 -78 105 -96 166 -129 252 -135 48 -3 62 -2 51 6 -8 6 -26 11 -40 11
-57 1 -164 86 -252 202 -56 74 -190 102 -283 59z"/>
        <path d="M9618 12900 c-20 -11 -68 -58 -107 -103 -77 -93 -150 -146 -211 -154
-58 -8 -60 -23 -2 -23 69 0 168 52 265 140 110 99 147 103 224 26 64 -65 56
-80 -26 -51 -50 17 -54 5 -11 -35 59 -56 146 -63 229 -20 22 11 66 45 98 76
46 44 53 54 33 49 -59 -16 -71 -17 -103 -11 -19 3 -60 27 -93 52 -32 25 -74
52 -92 60 -51 21 -159 17 -204 -6z"/>
        <path d="M10340 12500 l0 -130 980 0 980 0 0 130 0 130 -980 0 -980 0 0 -130z"/>
        <path d="M8684 11102 c-213 -138 -493 -436 -623 -665 -107 -188 -147 -320
-138 -462 3 -49 15 -119 26 -155 73 -233 311 -429 651 -538 146 -46 156 -47
261 -18 293 80 518 222 638 401 71 106 92 176 98 317 5 108 3 125 -22 205 -62
200 -209 426 -414 637 -160 163 -354 316 -401 316 -9 0 -43 -17 -76 -38z m164
-114 c104 -71 310 -279 409 -411 90 -121 180 -286 213 -392 44 -138 26 -298
-47 -423 -60 -102 -188 -214 -323 -283 -55 -28 -76 -33 -135 -33 -181 0 -306
97 -249 193 10 17 58 62 106 101 49 39 104 92 123 118 71 98 84 251 32 365
-32 71 -105 149 -163 177 -36 16 -50 30 -66 66 -18 43 -19 64 -2 109 6 14 3
16 -16 10 -22 -7 -23 -5 -17 31 10 62 58 147 87 154 22 5 25 12 28 57 2 29 -2
69 -7 90 -12 41 -49 108 -57 101 -2 -3 3 -33 11 -66 21 -80 9 -125 -56 -213
-65 -89 -91 -150 -97 -231 -4 -54 -7 -66 -17 -58 -18 15 -23 4 -25 -60 -3 -75
-2 -80 15 -74 13 5 94 -43 95 -57 0 -8 -68 -39 -85 -39 -8 0 -15 7 -15 15 0 8
-5 15 -11 15 -7 0 -9 -27 -4 -87 7 -88 7 -88 56 -140 59 -62 74 -95 60 -135
-15 -41 2 -34 28 12 16 28 21 52 19 82 -3 40 -5 43 -32 43 -26 1 -56 26 -56
48 0 5 13 22 29 38 24 24 38 29 76 29 54 0 88 -27 103 -84 22 -79 -18 -141
-147 -224 -99 -64 -126 -90 -157 -157 -39 -82 -28 -163 32 -242 l24 -32 -37
13 c-404 143 -610 440 -523 755 60 216 251 490 494 709 78 71 201 162 219 162
5 0 43 -24 85 -52z"/>
        <path d="M10340 10750 l0 -130 745 0 745 0 0 130 0 130 -745 0 -745 0 0 -130z"/>
        <path d="M7695 9521 c-22 -10 -59 -34 -83 -54 -57 -48 -110 -64 -165 -50 -23
7 -44 9 -47 6 -9 -9 98 -98 146 -123 92 -46 174 -37 234 25 40 41 36 51 -13
30 -39 -16 -77 -20 -77 -7 0 18 62 81 96 97 58 27 92 14 182 -68 105 -96 165
-128 251 -133 59 -3 62 -2 31 7 -108 33 -171 80 -256 191 -56 72 -107 98 -195
98 -40 0 -79 -7 -104 -19z"/>
        <path d="M9616 9517 c-22 -12 -67 -56 -101 -97 -69 -84 -150 -146 -204 -156
-61 -11 -71 -23 -20 -24 88 0 159 37 282 149 71 64 100 77 144 66 29 -7 113
-85 113 -104 0 -15 -34 -14 -75 3 -44 19 -46 4 -5 -34 87 -82 221 -57 336 62
30 31 41 48 29 44 -76 -27 -127 -18 -193 34 -74 59 -126 80 -202 80 -49 0 -75
-6 -104 -23z"/>
        <path d="M10340 9380 l0 -130 745 0 745 0 0 130 0 130 -745 0 -745 0 0 -130z"/>
    </g>
</svg>
